<svg width="52" height="52" viewBox="0 0 52 52" fill="none" xmlns="http://www.w3.org/2000/svg">
    <g clip-path="url(#o80tzcdmta)">
        <path d="M41.465 5.741h-.009a.824.824 0 0 0-.823.828c0 .457.375.828.832.828a.828.828 0 0 0 0-1.656z" fill="#F7B551"/>
        <path d="m29.546 39.571-7.881-3.284a.936.936 0 0 1-.578-.866v-1.672l1.474-.818a4.357 4.357 0 0 0 2.225-3.417l.003-.036h.77a2.597 2.597 0 0 0 2.594-2.595v-1.595c.232-.56.883-2.356.883-4.833 0-3.422-1.34-6.65-3.774-9.092a13.023 13.023 0 0 0-3.128-2.315c-.04-2.803-2.846-5.073-6.291-5.073-3.445 0-6.251 2.27-6.291 5.073a13.018 13.018 0 0 0-3.128 2.315c-2.434 2.441-3.774 5.67-3.774 9.092 0 2.477.651 4.272.883 4.834v1.594a2.597 2.597 0 0 0 2.595 2.595h.769l.003.035a4.357 4.357 0 0 0 2.225 3.418l1.474.818v1.672c0 .38-.227.72-.578.866l-7.88 3.284A3.468 3.468 0 0 0 0 42.781v5.3a2.597 2.597 0 0 0 2.595 2.594H29.09a2.597 2.597 0 0 0 2.595-2.594v-5.3c0-1.408-.84-2.668-2.14-3.21zm-3.05-12.688a.94.94 0 0 1-.938.939h-.618l.33-3.644h.288a.94.94 0 0 1 .939.939v1.766zM15.844 5.631c2.169 0 3.994 1.122 4.498 2.633a13.571 13.571 0 0 0-4.498-.756c-1.564 0-3.08.259-4.498.756.504-1.51 2.329-2.633 4.498-2.633zM6.127 27.82a.94.94 0 0 1-.938-.938v-1.766a.94.94 0 0 1 .938-.939h.288l.331 3.644h-.619zm3.803 3.662a2.703 2.703 0 0 1-1.38-2.12l-.631-6.933c1.083-.007 2.982-.1 5.203-.56 4.542-.94 8.247-2.994 10.715-5.937a.828.828 0 1 0-1.268-1.064c-5.387 6.423-15.37 5.897-15.506 5.889a.828.828 0 0 0-.877.9l.078.864h-.137c-.58 0-1.115.192-1.548.514a12.295 12.295 0 0 1-.273-2.58c0-2.981 1.169-5.795 3.29-7.923 2.168-2.173 5.096-3.37 8.247-3.37 3.15 0 6.08 1.197 8.246 3.37 2.122 2.128 3.291 4.942 3.291 7.922a12.29 12.29 0 0 1-.274 2.581 2.58 2.58 0 0 0-1.548-.514h-.137l.079-.863a.828.828 0 0 0-.24-.66l-1.766-1.767a.828.828 0 1 0-1.17 1.17l1.491 1.493-.59 6.485c-.675.599-2.82 2.091-7.382 2.091a.828.828 0 1 0 0 1.656c3.17 0 5.34-.663 6.746-1.364-.222.29-.503.537-.833.72l-4.6 2.556a2.689 2.689 0 0 1-2.627 0l-4.6-2.556zm.728 6.333a2.588 2.588 0 0 0 1.597-2.395v-.752l1.47.817c.663.368 1.39.553 2.118.553.727 0 1.455-.184 2.118-.553l1.47-.817v.752c0 1.05.627 1.99 1.597 2.395l.868.362c-1.553 1.803-3.054 2.7-4.071 3.137-1.125.485-1.903.525-1.982.528-.079-.003-.858-.043-1.982-.528-1.017-.438-2.518-1.334-4.071-3.137l.868-.362zM5.3 49.019H2.595a.94.94 0 0 1-.939-.938v-5.3c0-.228.042-.449.12-.653l2.84 2.271c.434.347.683.866.683 1.422v3.198zm19.431-3.198v3.198H6.955v-3.198a3.46 3.46 0 0 0-1.305-2.715l-2.632-2.107 5.171-2.155c2.729 3.375 5.487 4.304 6.826 4.559v2.8a.828.828 0 1 0 1.656 0v-2.8c1.339-.255 4.097-1.184 6.825-4.559L28.668 41l-2.633 2.107a3.461 3.461 0 0 0-1.305 2.715zm5.3 2.26a.94.94 0 0 1-.939.938h-2.705v-3.198c0-.556.25-1.075.684-1.422l2.839-2.271c.078.204.12.425.12.653v5.3z" fill="#000"/>
        <path d="M14.823 24.757c-.396-.82-1.35-1.352-2.431-1.352-1.082 0-2.036.531-2.432 1.352a.828.828 0 0 0 1.492.72c.097-.202.46-.415.94-.415.48 0 .842.213.939.414a.828.828 0 1 0 1.492-.719zM21.726 24.757c-.395-.82-1.35-1.352-2.431-1.352-1.082 0-2.036.531-2.432 1.352a.828.828 0 1 0 1.493.72c.096-.202.458-.415.939-.415.48 0 .842.213.94.414a.828.828 0 1 0 1.491-.719z" fill="#000"/>
        <path d="M41.457 1.325c-5.814 0-10.544 4.73-10.544 10.543 0 3.05 1.292 5.889 3.568 7.894-1.142 1.87-2.382 2.948-2.395 2.959a.828.828 0 0 0 .604 1.455c.136-.011 3.245-.276 6.004-2.131.898.243 1.826.367 2.763.367C47.27 22.412 52 17.682 52 11.869c0-5.814-4.73-10.544-10.543-10.544zm0 19.43a8.887 8.887 0 0 1-2.665-.406.828.828 0 0 0-.736.12c-1.02.745-2.139 1.225-3.1 1.533.43-.567.89-1.249 1.32-2.035a.828.828 0 0 0-.222-1.054c-2.215-1.702-3.485-4.27-3.485-7.045 0-4.9 3.987-8.887 8.888-8.887 4.9 0 8.887 3.987 8.887 8.887 0 4.901-3.987 8.888-8.887 8.888z" fill="#F7B551"/>
        <path d="M42.34 16.34h-.056v-5.41h.056a.828.828 0 1 0 0-1.656h-1.767a.828.828 0 1 0 0 1.656h.055v5.41h-.055a.828.828 0 1 0 0 1.656h1.767a.828.828 0 1 0 0-1.656z" fill="#F7B551"/>
    </g>
    <defs>
        <clipPath id="o80tzcdmta">
            <path fill="#fff" d="M0 0h52v52H0z"/>
        </clipPath>
    </defs>
</svg>
