<svg width="62" height="62" viewBox="0 0 62 62" fill="none" xmlns="http://www.w3.org/2000/svg">
    <path d="m57.66 34.746-1.606-6.422a.971.971 0 0 0 .768-.95V26.34a4.082 4.082 0 0 0-4.077-4.078h-7.313v-2.136c0-1.106-.9-2.006-2.006-2.006H29.828l8.263-3.305a.97.97 0 0 0-.72-1.803l-6.767 2.706c2.062-1.322 4.102-2.778 4.878-3.796a4.526 4.526 0 0 0-.853-6.337 4.526 4.526 0 0 0-6.336.853c-1.105 1.449-2.563 5.519-3.506 8.387-.943-2.868-2.4-6.938-3.505-8.387a4.526 4.526 0 0 0-6.337-.853 4.526 4.526 0 0 0-.853 6.337c.776 1.018 2.816 2.474 4.878 3.796l-6.766-2.706a.97.97 0 1 0-.721 1.803l8.263 3.305H6.148c-1.106 0-2.006.9-2.006 2.006V37.73a.97.97 0 0 0 1.942 0V20.127c0-.036.028-.065.064-.065h37.278c.035 0 .064.029.064.064V37.73a.97.97 0 1 0 1.942 0v-1.1H56.89a3.176 3.176 0 0 1 3.016 2.2h-3.019a.97.97 0 0 0-.97.971v2.07a3.045 3.045 0 0 0 3.041 3.043h1.1v4.271H57.52a6.158 6.158 0 0 0-5.81-4.142 6.158 6.158 0 0 0-5.81 4.142h-.468v-7.313a.97.97 0 0 0-1.942 0v7.313H23.35a6.158 6.158 0 0 0-5.81-4.142 6.158 6.158 0 0 0-5.81 4.142h-5.58a.065.065 0 0 1-.065-.065v-2.136h4.206a.97.97 0 0 0 0-1.941H.97a.97.97 0 0 0 0 1.941h3.172v2.136c0 1.107.9 2.007 2.006 2.007h5.244l-.002.064a6.155 6.155 0 0 0 6.149 6.148 6.155 6.155 0 0 0 6.148-6.148l-.002-.065h21.878l-.002.065a6.155 6.155 0 0 0 6.149 6.148 6.155 6.155 0 0 0 6.148-6.148l-.002-.065h3.173a.97.97 0 0 0 .97-.97V39.8a5.12 5.12 0 0 0-4.34-5.055zM20.937 14.66c-3.83-2.38-4.965-3.474-5.301-3.915a2.582 2.582 0 0 1 .486-3.615 2.567 2.567 0 0 1 1.562-.528c.777 0 1.547.35 2.054 1.015.939 1.231 2.41 5.375 3.38 8.361-.655-.385-1.408-.837-2.18-1.318zm5.519 1.318c.97-2.986 2.441-7.13 3.38-8.361a2.582 2.582 0 0 1 3.616-.487 2.582 2.582 0 0 1 .486 3.615c-.336.44-1.472 1.536-5.3 3.915-.774.48-1.527.932-2.182 1.318zm18.976 8.227h7.313c1.178 0 2.136.958 2.136 2.135v.065h-9.449v-2.2zm0 10.484v-6.342h8.626l1.586 6.342H45.432zM17.54 55.398a4.211 4.211 0 0 1-4.207-4.207 4.212 4.212 0 0 1 4.207-4.207 4.211 4.211 0 0 1 4.206 4.207 4.211 4.211 0 0 1-4.206 4.207zm34.17 0a4.211 4.211 0 0 1-4.206-4.207 4.212 4.212 0 0 1 4.207-4.207 4.211 4.211 0 0 1 4.206 4.207 4.211 4.211 0 0 1-4.206 4.207zm8.35-12.426h-1.1c-.607 0-1.101-.494-1.101-1.1v-1.1h2.2v2.2z" fill="#000"/>
    <path d="M17.538 49.185c-1.106 0-2.006.9-2.006 2.006 0 1.106.9 2.006 2.006 2.006 1.107 0 2.007-.9 2.007-2.006 0-1.106-.9-2.006-2.007-2.006zM51.71 49.185c-1.107 0-2.007.9-2.007 2.006 0 1.106.9 2.006 2.006 2.006 1.107 0 2.007-.9 2.007-2.006 0-1.106-.9-2.006-2.007-2.006zM40.32 45.043H25.821a.97.97 0 0 0 0 1.941H40.32a.97.97 0 0 0 0-1.941zM15.468 40.901H3.042a.97.97 0 0 0 0 1.942h12.426a.97.97 0 0 0 0-1.942z" fill="#000"/>
    <path d="M15.467 26.404h-4.142a.97.97 0 0 0-.97.97v8.285a.97.97 0 0 0 1.941 0v-3.172h2.136a.97.97 0 0 0 0-1.941h-2.136v-2.2h3.171a.97.97 0 0 0 0-1.942zM23.108 32.943a3.559 3.559 0 0 0 1.615-2.98 3.563 3.563 0 0 0-3.56-3.559h-2.589a.97.97 0 0 0-.97.97v8.285a.97.97 0 0 0 1.941 0v-2.136h1.616l1.783 2.674a.97.97 0 1 0 1.615-1.077l-1.451-2.177zm-1.945-1.361h-1.618v-3.236h1.618a1.62 1.62 0 0 1 1.618 1.617 1.62 1.62 0 0 1-1.618 1.618zM31 34.688h-3.172v-2.204c.022.002.043.004.065.004h2.07a.97.97 0 0 0 0-1.942h-2.07c-.022 0-.043.002-.065.003v-2.203H31a.97.97 0 0 0 0-1.942h-4.142a.97.97 0 0 0-.971.97v8.285c0 .536.434.97.97.97H31a.97.97 0 0 0 0-1.941zM38.249 34.688h-3.172v-2.2h1.1a.97.97 0 0 0 0-1.942h-1.1v-2.2h3.172a.97.97 0 0 0 0-1.942h-4.142a.97.97 0 0 0-.971.97v8.285c0 .536.434.97.97.97h4.143a.97.97 0 0 0 0-1.941z" fill="#9C5E00"/>
</svg>
