<svg width="54" height="54" viewBox="0 0 54 54" fill="none" xmlns="http://www.w3.org/2000/svg">
    <path d="M27.459 37.147a.86.86 0 0 0-.86.86v1.834a.86.86 0 1 0 1.72 0v-1.835a.86.86 0 0 0-.86-.86z" fill="#000"/>
    <path d="M53.48 24.826a1.765 1.765 0 0 0-1.257-.52h-2.208c-.028 0-.047-.032-.053-.06a18.287 18.287 0 0 0-3.935-8.115 18.381 18.381 0 0 0-7.053-5.14c-.439-1.85-1.364-3.756-3.188-5.19-1.766-1.387-3.545-1.654-3.62-1.665a.86.86 0 0 0-.981.851V9.63h-3.12c-.772-2.646-3.218-4.586-6.11-4.586-2.953 0-5.442 2.023-6.156 4.755a18.246 18.246 0 0 0-11.066 5.842A18.246 18.246 0 0 0 0 27.917c0 10.21 5.3 18.517 6.925 20.82a2.692 2.692 0 0 0 2.199 1.136h3.66a2.697 2.697 0 0 0 2.694-2.695v-1.19c.926.143 1.867.216 2.809.216h8.312v.974a2.697 2.697 0 0 0 2.694 2.695h4.02c1.262 0 2.37-.896 2.635-2.13l.44-2.06c5.652-1.376 10.196-5.34 12.433-10.486h3.402c.98 0 1.777-.797 1.777-1.777v-7.337c0-.475-.185-.921-.52-1.257zM21.954 6.764a4.649 4.649 0 0 1 4.644 4.644c0 .654-.14 1.3-.405 1.891h-8.478a4.649 4.649 0 0 1-.404-1.891 4.649 4.649 0 0 1 4.643-4.644zM52.28 33.42a.057.057 0 0 1-.057.058h-2.756a18.2 18.2 0 0 0 .84-4.6.86.86 0 1 0-1.718-.088c-.364 7.023-5.145 13.02-11.795 15.003l1.201-5.606a.86.86 0 1 0-1.681-.36l-2.048 9.555a.98.98 0 0 1-.953.77h-4.02a.976.976 0 0 1-.975-.974V43.51a.86.86 0 0 0-1.72 0v.975h-8.311c-.944 0-1.886-.081-2.81-.239v-6.239a.86.86 0 1 0-1.72 0v9.172a.976.976 0 0 1-.974.975h-3.66a.957.957 0 0 1-.793-.408C6.78 45.547 1.72 37.62 1.72 27.917c0-4.12 1.522-8.07 4.287-11.121a16.53 16.53 0 0 1 9.588-5.227c.015.589.111 1.172.285 1.73h-.345a.86.86 0 0 0 0 1.72h12.84a.86.86 0 1 0 0-1.72h-.344c.19-.61.288-1.247.288-1.891l-.002-.058h2.868v1.892a.86.86 0 1 0 1.72 0V6.116c1.631.618 4.7 2.514 4.7 8.043a.86.86 0 1 0 1.72 0c0-.364-.013-.749-.044-1.146a16.679 16.679 0 0 1 5.432 4.228 16.564 16.564 0 0 1 3.564 7.348c.17.833.901 1.437 1.739 1.437h2.207c.006 0 .024 0 .04.016a.055.055 0 0 1 .017.04v7.338z" fill="#000"/>
    <path d="M44.774 24.865c-.534-1.432-1.946-2.394-3.515-2.394-1.569 0-2.981.962-3.515 2.394a.86.86 0 1 0 1.611.6c.285-.762 1.05-1.274 1.904-1.274.854 0 1.62.512 1.904 1.275a.86.86 0 1 0 1.611-.6z" fill="#000"/>
    <path d="M22.816 27.262v-4.395c1.686.205 2.866.987 2.866 1.697a.86.86 0 0 0 1.72 0c0-1.758-1.955-3.172-4.587-3.427v-.099a.86.86 0 1 0-1.72 0v.099c-2.63.255-4.585 1.669-4.585 3.427 0 2.51 2.48 3.417 4.586 4.009v4.394c-1.687-.205-2.866-.986-2.866-1.696a.86.86 0 1 0-1.72 0c0 1.758 1.954 3.171 4.586 3.426v.1a.86.86 0 1 0 1.72 0v-.1c2.63-.255 4.585-1.668 4.585-3.426 0-2.511-2.48-3.417-4.585-4.01zm-1.72-.49c-2.118-.664-2.866-1.267-2.866-2.208 0-.71 1.179-1.492 2.866-1.697v3.905zm1.72 6.195v-3.905c2.117.664 2.866 1.268 2.866 2.209 0 .71-1.18 1.491-2.866 1.696z" fill="#F7B551"/>
</svg>
