<svg width="22" height="21" viewBox="0 0 22 21" fill="none" xmlns="http://www.w3.org/2000/svg">
<path fill-rule="evenodd" clip-rule="evenodd" d="M14.9349 14.6262C13.4972 16.1453 11.4618 17.093 9.20511 17.093C4.84876 17.093 1.31724 13.5615 1.31724 9.20511C1.31724 4.84876 4.84876 1.31724 9.20511 1.31724C13.5615 1.31724 17.093 4.84876 17.093 9.20511C17.093 11.073 16.4437 12.7893 15.3585 14.1405C15.2781 14.1797 15.2027 14.2326 15.1359 14.2994C15.041 14.3944 14.974 14.5067 14.9349 14.6262ZM15.5463 15.8777C13.8954 17.4471 11.6627 18.4102 9.20511 18.4102C4.12127 18.4102 0 14.289 0 9.20511C0 4.12127 4.12127 0 9.20511 0C14.289 0 18.4102 4.12127 18.4102 9.20511C18.4102 11.2356 17.7528 13.1126 16.6392 14.6347L21.5905 19.586C21.913 19.9086 21.913 20.4314 21.5905 20.754C21.268 21.0765 20.7451 21.0765 20.4226 20.754L15.5463 15.8777Z" fill="white"/>
</svg>
