<svg width="52" height="52" viewBox="0 0 52 52" fill="none" xmlns="http://www.w3.org/2000/svg">
    <g clip-path="url(#2vvmhqqfqa)">
        <path d="M50.228 26.513h-.057V14.571a2.689 2.689 0 0 0-2.685-2.686h-.48L45.91 6.13a1.76 1.76 0 0 0-.744-1.134 1.76 1.76 0 0 0-1.327-.276l-4.076.775-1.518-4.31a1.76 1.76 0 0 0-.905-1.008 1.76 1.76 0 0 0-1.354-.074L2.523 11.89A2.689 2.689 0 0 0 0 14.57v34.743A2.689 2.689 0 0 0 2.686 52h44.8a2.689 2.689 0 0 0 2.686-2.686V37.371h.057c.977 0 1.771-.795 1.771-1.772v-7.314c0-.977-.795-1.772-1.772-1.772zM36.556 1.721c.006-.002.023-.008.044.003.021.01.027.027.03.032l1.43 4.064-1.706.325a.857.857 0 1 0 .32 1.684l7.486-1.423c.006-.001.023-.005.043.009.02.013.023.03.024.036l1.033 5.434H15.34l17.678-3.36a.857.857 0 1 0-.32-1.685L9.5 11.25l27.055-9.529zm11.901 47.592a.973.973 0 0 1-.971.972h-44.8a.973.973 0 0 1-.972-.972v-.971H3.6a.857.857 0 0 0 0-1.714H1.714V17.256H3.6a.857.857 0 0 0 0-1.714H1.714v-.972c0-.535.436-.97.972-.97h44.8c.535 0 .971.435.971.97v11.943h-5.543a5.435 5.435 0 0 0-5.428 5.429 5.435 5.435 0 0 0 5.428 5.429h5.543v11.942zM50.286 35.6a.057.057 0 0 1-.058.057h-7.314a3.718 3.718 0 0 1-3.714-3.714 3.718 3.718 0 0 1 3.714-3.714h7.314c.032 0 .058.025.058.057v7.314z" fill="#000"/>
        <path d="M9.086 46.627H7.258a.857.857 0 0 0 0 1.714h1.828a.857.857 0 0 0 0-1.714zM9.086 15.541H7.258a.857.857 0 0 0 0 1.715h1.828a.857.857 0 0 0 0-1.715zM14.572 46.627h-1.83a.857.857 0 0 0 0 1.714h1.83a.857.857 0 0 0 0-1.714zM14.572 15.541h-1.83a.857.857 0 0 0 0 1.715h1.83a.857.857 0 0 0 0-1.715zM20.057 46.627h-1.829a.857.857 0 0 0 0 1.714h1.829a.857.857 0 0 0 0-1.714zM20.057 15.541h-1.829a.857.857 0 0 0 0 1.715h1.829a.857.857 0 0 0 0-1.715zM25.543 46.627h-1.828a.857.857 0 0 0 0 1.714h1.828a.857.857 0 0 0 0-1.714zM25.543 15.541h-1.828a.857.857 0 0 0 0 1.715h1.828a.857.857 0 0 0 0-1.715zM31.029 46.627H29.2a.857.857 0 0 0 0 1.714h1.829a.857.857 0 0 0 0-1.714zM31.029 15.541H29.2a.857.857 0 0 0 0 1.715h1.829a.857.857 0 0 0 0-1.715zM36.514 46.627h-1.829a.857.857 0 0 0 0 1.714h1.829a.857.857 0 0 0 0-1.714zM36.514 15.541h-1.829a.857.857 0 0 0 0 1.715h1.829a.857.857 0 0 0 0-1.715zM42 46.627h-1.828a.857.857 0 0 0 0 1.714H42a.857.857 0 0 0 0-1.714zM42 15.541h-1.828a.857.857 0 0 0 0 1.715H42a.857.857 0 0 0 0-1.715zM45.657 44.798a.857.857 0 0 0-.857.857v1.829a.857.857 0 1 0 1.714 0v-1.829a.857.857 0 0 0-.857-.857zM45.657 15.541a.857.857 0 0 0-.857.857v1.829a.857.857 0 1 0 1.714 0v-1.829a.857.857 0 0 0-.857-.857zM45.657 21.027a.857.857 0 0 0-.857.857v1.828a.857.857 0 1 0 1.714 0v-1.828a.857.857 0 0 0-.857-.857zM45.657 39.313a.857.857 0 0 0-.857.857v1.828a.857.857 0 1 0 1.714 0V40.17a.857.857 0 0 0-.857-.858zM42.914 30.17c-.977 0-1.771.794-1.771 1.771 0 .977.794 1.772 1.771 1.772.977 0 1.771-.795 1.771-1.772s-.794-1.771-1.771-1.771z" fill="#000"/>
        <path d="M24.571 31.287v-6.683c2.801.225 4.686 1.528 4.686 2.709a.857.857 0 0 0 1.714 0c0-2.321-2.749-4.174-6.4-4.427v-1.002a.857.857 0 0 0-1.714 0v1.002c-3.65.253-6.4 2.106-6.4 4.427 0 3.109 2.956 4.322 6.4 5.283v6.682c-2.8-.225-4.686-1.528-4.686-2.708a.857.857 0 0 0-1.714 0c0 2.32 2.75 4.173 6.4 4.426v1.002a.857.857 0 0 0 1.714 0v-1.002c3.651-.253 6.4-2.106 6.4-4.426 0-3.11-2.956-4.323-6.4-5.283zm-1.714-.477c-3.476-1.027-4.686-1.96-4.686-3.497 0-1.181 1.886-2.484 4.686-2.709v6.206zm1.714 8.468v-6.206c3.477 1.027 4.686 1.96 4.686 3.498 0 1.18-1.885 2.483-4.686 2.708z" fill="#F7B551"/>
    </g>
    <defs>
        <clipPath id="2vvmhqqfqa">
            <path fill="#fff" d="M0 0h52v52H0z"/>
        </clipPath>
    </defs>
</svg>
