<svg width="49" height="49" viewBox="0 0 49 49" fill="none" xmlns="http://www.w3.org/2000/svg">
    <g clip-path="url(#kmiuy74qna)" fill="#000">
        <path d="M45.54 16.45 37.896 3.207a4.28 4.28 0 0 0-2.615-2.006 4.28 4.28 0 0 0-3.268.43L6.49 16.366H4.307A4.312 4.312 0 0 0 0 20.673V43.64a4.311 4.311 0 0 0 4.307 4.307h40.386A4.311 4.311 0 0 0 49 43.641V20.673a4.314 4.314 0 0 0-3.46-4.223zM33.449 4.117a1.437 1.437 0 0 1 1.96.526l6.77 11.723H12.232L33.448 4.117zm12.68 39.524c0 .792-.643 1.436-1.435 1.436H4.307a1.437 1.437 0 0 1-1.436-1.436v-12.92H46.13v12.92zm0-15.79H2.872v-2.872H46.13v2.871zm0-5.743H2.872v-1.435c0-.792.644-1.436 1.436-1.436h40.386c.792 0 1.436.644 1.436 1.436v1.435z"/>
        <path d="M34.357 8.565a1.435 1.435 0 0 0-1.961-.526l-4.973 2.872a1.436 1.436 0 1 0 1.436 2.486l4.972-2.871a1.436 1.436 0 0 0 .526-1.961zM35.123 42.206h3.828a4.311 4.311 0 0 0 4.307-4.307 4.312 4.312 0 0 0-4.307-4.306h-3.828a4.312 4.312 0 0 0-4.307 4.306 4.311 4.311 0 0 0 4.307 4.307zm0-5.742h3.828c.792 0 1.436.644 1.436 1.435 0 .792-.644 1.436-1.436 1.436h-3.828a1.437 1.437 0 0 1-1.435-1.436c0-.791.643-1.435 1.435-1.435zM7.178 42.206h9.761a1.436 1.436 0 0 0 0-2.871H7.178a1.436 1.436 0 0 0 0 2.87zM7.178 36.464h9.761a1.436 1.436 0 0 0 0-2.871H7.178a1.436 1.436 0 0 0 0 2.87z"/>
    </g>
    <defs>
        <clipPath id="kmiuy74qna">
            <path fill="#fff" d="M0 0h49v49H0z"/>
        </clipPath>
    </defs>
</svg>
