<svg width="31" height="32" viewBox="0 0 31 32" fill="none" xmlns="http://www.w3.org/2000/svg">
<path d="M15.1924 31C23.0306 31 29.3848 24.2843 29.3848 16C29.3848 7.71573 23.0306 1 15.1924 1C7.35415 1 1 7.71573 1 16C1 24.2843 7.35415 31 15.1924 31Z" stroke="white" stroke-width="1.5" stroke-linecap="round" stroke-linejoin="round"/>
<path d="M5.80078 27.2433C5.80078 27.2433 8.45721 24.3313 8.45721 15.9998C8.45721 7.6683 5.80078 4.75635 5.80078 4.75635" stroke="white" stroke-width="1.5" stroke-linecap="round" stroke-linejoin="round"/>
<path d="M5.32031 8.17401C5.32031 8.17401 7.76076 9.47836 8.9671 6.80444" stroke="white" stroke-width="1.5" stroke-linecap="round" stroke-linejoin="round"/>
<path d="M6.18359 11.4803C6.18359 11.4803 8.31865 13.2901 10.0187 10.9292" stroke="white" stroke-width="1.5" stroke-linecap="round" stroke-linejoin="round"/>
<path d="M6.41797 15.4033C6.41797 15.4033 8.26916 17.5424 10.29 15.4881" stroke="white" stroke-width="1.5" stroke-linecap="round" stroke-linejoin="round"/>
<path d="M9.99023 21.0022C9.99023 21.0022 8.2995 18.7196 6.13672 20.6174" stroke="white" stroke-width="1.5" stroke-linecap="round" stroke-linejoin="round"/>
<path d="M8.97211 25.2936C8.97211 25.2936 7.78426 22.6849 5.28516 24.0414" stroke="white" stroke-width="1.5" stroke-linecap="round" stroke-linejoin="round"/>
<path d="M24.5861 27.2433C24.5861 27.2433 21.9297 24.3313 21.9297 15.9998C21.9297 7.6683 24.5861 4.75635 24.5861 4.75635" stroke="white" stroke-width="1.5" stroke-linecap="round" stroke-linejoin="round"/>
<path d="M25.0648 8.17377C25.0648 8.17377 22.6243 9.47812 21.418 6.8042" stroke="white" stroke-width="1.5" stroke-linecap="round" stroke-linejoin="round"/>
<path d="M24.1983 11.4803C24.1983 11.4803 22.0633 13.2901 20.3633 10.9292" stroke="white" stroke-width="1.5" stroke-linecap="round" stroke-linejoin="round"/>
<path d="M23.9658 15.4033C23.9658 15.4033 22.1146 17.5424 20.0938 15.4881" stroke="white" stroke-width="1.5" stroke-linecap="round" stroke-linejoin="round"/>
<path d="M20.3984 21.0022C20.3984 21.0022 22.0892 18.7196 24.252 20.6174" stroke="white" stroke-width="1.5" stroke-linecap="round" stroke-linejoin="round"/>
<path d="M21.4141 25.2936C21.4141 25.2936 22.6019 22.6849 25.1164 24.0414" stroke="white" stroke-width="1.5" stroke-linecap="round" stroke-linejoin="round"/>
</svg>
