<svg width="30" height="30" viewBox="0 0 30 30" xmlns="http://www.w3.org/2000/svg">
<path d="M19.2845 29.9999C18.2873 29.9999 17.3124 29.7042 16.4832 29.1502C15.6539 28.5961 15.0077 27.8086 14.626 26.8872C14.2444 25.9659 14.1445 24.952 14.3391 23.9739C14.5336 22.9958 15.0139 22.0973 15.7191 21.3921C16.4242 20.6869 17.3227 20.2067 18.3008 20.0121C19.2789 19.8176 20.2928 19.9174 21.2142 20.2991C22.1355 20.6807 22.923 21.327 23.4771 22.1562C24.0312 22.9854 24.3269 23.9603 24.3269 24.9576C24.3269 26.2949 23.7956 27.5775 22.85 28.5231C21.9044 29.4687 20.6218 29.9999 19.2845 29.9999ZM19.2845 21.0358C18.5089 21.0358 17.7506 21.2658 17.1057 21.6967C16.4607 22.1277 15.9581 22.7402 15.6612 23.4568C15.3644 24.1734 15.2867 24.962 15.4381 25.7227C15.5894 26.4835 15.9629 27.1823 16.5114 27.7307C17.0599 28.2792 17.7587 28.6527 18.5194 28.8041C19.2802 28.9554 20.0687 28.8777 20.7854 28.5809C21.502 28.2841 22.1145 27.7814 22.5454 27.1364C22.9763 26.4915 23.2064 25.7333 23.2064 24.9576C23.2041 23.9189 22.79 22.9236 22.0547 22.1899C21.3195 21.4562 20.3232 21.0442 19.2845 21.0442V21.0358Z"/>
<path d="M21.6196 24.6299C21.3938 24.9339 21.0909 25.1721 20.7423 25.3198C20.3936 25.4676 20.0118 25.5195 19.6363 25.4703C18.1068 25.3022 16.4652 25.7336 15.6641 26.4591C15.8174 26.819 16.0232 27.1541 16.2747 27.4536C16.3158 27.3601 16.3829 27.2803 16.468 27.2239C16.9835 26.7981 18.2301 26.4227 19.5131 26.5656C20.0804 26.6386 20.657 26.5599 21.1841 26.3375C21.7111 26.115 22.1697 25.7568 22.5132 25.2994C22.7867 24.9387 22.9883 24.5288 23.1071 24.092C22.9324 23.3158 22.5237 22.6118 21.9362 22.0751C22.1023 22.4933 22.1603 22.9465 22.105 23.393C22.0497 23.8395 21.8828 24.2649 21.6196 24.6299Z"/>
<path d="M3.64169 29.1344C3.05622 29.1344 2.63322 28.6974 1.99453 28.0391C1.86006 27.9018 1.7144 27.759 1.54632 27.5853L1.09251 27.1371C0.437003 26.5012 0 26.0782 0 25.4927C0.0179274 25.2729 0.0794239 25.059 0.180904 24.8632C0.282384 24.6675 0.421818 24.4939 0.591075 24.3526C0.975706 23.9622 1.49453 23.7328 2.04215 23.7111C2.29907 23.6996 2.55086 23.6352 2.78175 23.5219C3.01264 23.4087 3.21766 23.2489 3.38397 23.0528L8.00332 18.4362C9.39303 17.053 10.5914 15.49 11.5666 13.7889C12.3592 12.386 13.332 11.093 14.4603 9.94267L23.4245 0.978505C23.7353 0.668021 24.1043 0.421804 24.5103 0.253912C24.9163 0.0860195 25.3514 -0.000259535 25.7908 5.86427e-07C26.2301 0.000260708 26.6651 0.0870549 27.0709 0.255428C27.4767 0.4238 27.8454 0.670454 28.1559 0.981306C28.4664 1.29216 28.7126 1.66112 28.8805 2.06713C29.0484 2.47314 29.1347 2.90824 29.1344 3.34759C29.1341 3.78694 29.0473 4.22194 28.879 4.62774C28.7106 5.03355 28.4639 5.40222 28.1531 5.71271L19.1889 14.6769C18.0386 15.8031 16.7466 16.7749 15.3455 17.5678C13.6438 18.542 12.0807 19.7405 10.6982 21.1311L6.07883 25.7504C5.88266 25.9167 5.72294 26.1218 5.60966 26.3526C5.49639 26.5835 5.432 26.8353 5.42052 27.0922C5.3988 27.6399 5.16944 28.1587 4.77902 28.5433C4.49287 28.8828 4.08399 29.0953 3.64169 29.1344ZM25.772 1.12137C25.4794 1.12056 25.1896 1.17784 24.9194 1.28988C24.6491 1.40192 24.4038 1.5665 24.1977 1.77407L15.2335 10.7382C14.1688 11.8284 13.2506 13.0526 12.5022 14.3799C11.4853 16.1521 10.2392 17.7825 8.79609 19.229L4.17674 23.8483C3.66134 24.4239 2.94175 24.7756 2.17101 24.8288C2.02515 24.8251 1.88008 24.8513 1.74471 24.9057C1.60935 24.9602 1.48654 25.0417 1.38384 25.1453C1.13733 25.3947 1.12052 25.4927 1.12052 25.4927C1.14013 25.6216 1.52951 26.0025 1.87407 26.3331C2.01694 26.4704 2.17381 26.6132 2.34189 26.7925L2.8013 27.2575C3.13186 27.6021 3.51003 27.9915 3.64169 28.0139C3.6585 28.0139 3.75375 27.9803 3.98625 27.7506C4.08989 27.6479 4.17144 27.5251 4.22587 27.3897C4.28031 27.2543 4.30649 27.1092 4.3028 26.9634C4.35598 26.1926 4.70773 25.4731 5.28326 24.9577L9.90541 20.3383C11.3528 18.8872 12.9862 17.6343 14.7629 16.6126C16.0903 15.8643 17.3145 14.9461 18.4046 13.8813L27.3687 4.91714C27.6784 4.60506 27.8888 4.20829 27.9734 3.77683C28.058 3.34537 28.013 2.89852 27.844 2.49261C27.6751 2.0867 27.3897 1.73988 27.024 1.49585C26.6583 1.25183 26.2285 1.12153 25.7888 1.12137H25.772Z"/>
<path d="M5.44077 22.5847L4.64844 23.377L5.7577 24.4863L6.55002 23.694L5.44077 22.5847Z"/>
<path d="M7.22983 20.7983L6.4375 21.5907L7.54676 22.6999L8.33909 21.9076L7.22983 20.7983Z"/>
<path d="M8.79464 19.229L8.23438 19.7893L9.3549 20.9098L9.91516 20.3496L10.1421 20.1255L9.02154 19.0049L8.79464 19.229Z"/>
<path d="M10.6909 17.0887C10.4724 17.3688 10.2371 17.649 9.97656 17.9571L11.1727 19.1533C11.4837 18.8956 11.7638 18.6602 12.0439 18.4417L10.6909 17.0887Z"/>
</svg>
