<svg width="30" height="31" viewBox="0 0 30 31" xmlns="http://www.w3.org/2000/svg">
<path d="M29.9442 14.2508V14.2168C29.6158 10.4803 27.8994 7.00235 25.1335 4.46871C22.3677 1.93508 18.7529 0.529574 15.002 0.529297L14.5755 0.529297H14.557C10.7305 0.636754 7.09023 2.20481 4.38342 4.91163C1.6766 7.61844 0.108542 11.2587 0.0010844 15.0852C-0.000361466 15.0913 -0.000361465 15.0976 0.0010844 15.1037C0.0010844 15.2459 0.0010844 15.3881 0.0010844 15.5302C0.00144656 18.4968 0.881431 21.3968 2.52978 23.8633C4.17812 26.3299 6.52081 28.2523 9.26164 29.3875C12.0025 30.5227 15.0184 30.8198 17.928 30.2412C20.8377 29.6625 23.5104 28.2341 25.6083 26.1365C27.0059 24.7471 28.1139 23.0943 28.8683 21.2737C29.6226 19.4531 30.0083 17.5009 30.0029 15.5302C30.0029 15.1006 29.9782 14.6742 29.9442 14.2508ZM28.0899 11.2994C25.29 8.0483 21.9833 8.32025 19.2266 8.5644C17.292 8.7251 15.5892 8.87344 14.2479 7.9185C17.8699 4.71991 21.2385 3.3354 23.1113 4.40469C23.6816 4.82454 24.2208 5.28519 24.7245 5.78302C26.2743 7.32663 27.4334 9.21781 28.1054 11.2994H28.0899ZM10.3725 10.0262L5.71528 5.37199C7.85073 3.40785 10.5575 2.1768 13.4413 1.85818C11.7571 4.60556 11.0617 6.1446 12.4617 7.88141C11.8776 8.43769 11.3089 9.0156 10.7712 9.59969L10.3725 10.0262ZM16.3803 29.227C11.0772 26.4456 10.9412 23.3552 10.8176 20.3605C10.731 18.3209 10.6383 16.2132 8.88605 14.464C8.80261 14.3775 8.71608 14.3033 8.62646 14.223C9.19509 13.4133 9.80391 12.6159 10.4467 11.8433L24.2949 25.6884C22.1116 27.697 19.3331 28.9393 16.3803 29.227ZM5.31352 25.3052C3.94446 23.2779 5.34443 19.2387 7.92493 15.2583L8.00528 15.3355C9.4176 16.7478 9.49177 18.4537 9.5814 20.4131C9.70501 23.247 9.84099 26.4147 14.0131 29.2548C10.7318 29.0303 7.64228 27.6276 5.31352 25.3052ZM7.62207 13.4843C5.88834 12.4923 3.83939 12.6685 1.32379 14.0066C1.63604 11.1095 2.86862 8.38869 4.84069 6.24349L9.56285 10.9626C8.87678 11.7815 8.2247 12.6252 7.62207 13.4843ZM14.934 1.76547H15.002C16.8971 1.76385 18.7721 2.15421 20.5091 2.91201C18.2346 3.34158 15.6943 4.9826 13.3548 7.047C12.5018 5.9499 12.9221 5.01041 14.934 1.76547ZM1.23725 15.4684C4.05572 13.7841 5.74927 13.8552 6.92981 14.5042C4.9334 17.5637 3.59834 20.685 3.55816 23.1852C2.03782 20.9224 1.22951 18.2563 1.23725 15.5302V15.4684ZM25.1602 24.8169L11.2533 10.91L11.6705 10.4465C12.2227 9.84692 12.7748 9.28446 13.327 8.75909C15.0731 10.1436 17.2364 9.96745 19.3348 9.79129C22.6168 9.51934 26.007 9.23811 28.7266 14.4609C28.7544 14.8194 28.7729 15.1779 28.7729 15.5395C28.7784 18.9763 27.4884 22.2889 25.1602 24.8169Z"/>
</svg>
