<svg width="24" height="22" viewBox="0 0 24 22" fill="none" xmlns="http://www.w3.org/2000/svg">
<path d="M14.2436 17.7357V18.6815H8.97656V17.7357H11.3284V12.0405L9.72539 12.8603H9.67959L9.47349 12.21V12.1642L11.578 10.7627H12.3314V17.7357H14.2436Z" fill="black"/>
<path d="M22.0458 22.0001H1.603C1.17786 22.0001 0.770128 21.8312 0.469507 21.5306C0.168887 21.23 0 20.8222 0 20.3971L0 3.55417C0 3.12903 0.168887 2.7213 0.469507 2.42068C0.770128 2.12006 1.17786 1.95117 1.603 1.95117H22.0458C22.4709 1.95117 22.8787 2.12006 23.1793 2.42068C23.4799 2.7213 23.6488 3.12903 23.6488 3.55417V20.3971C23.6488 20.8222 23.4799 21.23 23.1793 21.5306C22.8787 21.8312 22.4709 22.0001 22.0458 22.0001ZM1.603 2.86717C1.42079 2.86717 1.24605 2.93955 1.11722 3.06839C0.988379 3.19723 0.915999 3.37197 0.915999 3.55417V20.3971C0.915999 20.5793 0.988379 20.754 1.11722 20.8829C1.24605 21.0117 1.42079 21.0841 1.603 21.0841H22.0458C22.228 21.0841 22.4027 21.0117 22.5316 20.8829C22.6604 20.754 22.7328 20.5793 22.7328 20.3971V3.55417C22.7328 3.37197 22.6604 3.19723 22.5316 3.06839C22.4027 2.93955 22.228 2.86717 22.0458 2.86717H1.603Z" fill="black"/>
<path d="M22.7309 7.96924H0.914062V8.88524H22.7309V7.96924Z" fill="black"/>
<path d="M4.8955 4.73342C4.77403 4.73342 4.65754 4.68517 4.57164 4.59928C4.48575 4.51339 4.4375 4.39689 4.4375 4.27542V0.457999C4.4375 0.33653 4.48575 0.220036 4.57164 0.134145C4.65754 0.0482534 4.77403 0 4.8955 0C5.01697 0 5.13346 0.0482534 5.21935 0.134145C5.30525 0.220036 5.3535 0.33653 5.3535 0.457999V4.27542C5.3535 4.39689 5.30525 4.51339 5.21935 4.59928C5.13346 4.68517 5.01697 4.73342 4.8955 4.73342Z" fill="black"/>
<path d="M11.8252 4.73342C11.7037 4.73342 11.5872 4.68517 11.5013 4.59928C11.4154 4.51339 11.3672 4.39689 11.3672 4.27542V0.457999C11.3672 0.33653 11.4154 0.220036 11.5013 0.134145C11.5872 0.0482534 11.7037 0 11.8252 0C11.9467 0 12.0631 0.0482534 12.149 0.134145C12.2349 0.220036 12.2832 0.33653 12.2832 0.457999V4.27542C12.2832 4.39689 12.2349 4.51339 12.149 4.59928C12.0631 4.68517 11.9467 4.73342 11.8252 4.73342Z" fill="black"/>
<path d="M18.751 4.73342C18.6295 4.73342 18.513 4.68517 18.4271 4.59928C18.3412 4.51339 18.293 4.39689 18.293 4.27542V0.457999C18.293 0.33653 18.3412 0.220036 18.4271 0.134145C18.513 0.0482534 18.6295 0 18.751 0C18.8724 0 18.9889 0.0482534 19.0748 0.134145C19.1607 0.220036 19.209 0.33653 19.209 0.457999V4.27542C19.209 4.39689 19.1607 4.51339 19.0748 4.59928C18.9889 4.68517 18.8724 4.73342 18.751 4.73342Z" fill="black"/>
</svg>
