<svg width="22" height="18" viewBox="0 0 22 18" fill="none" xmlns="http://www.w3.org/2000/svg">
    <path d="M21.377 3.839H6.544l-.578-2.385C5.757.598 5.01 0 4.15 0H1.342A.632.632 0 0 0 .72.64c0 .353.279.64.623.64h2.81c.286 0 .534.199.604.484l2.172 8.959-.48.494c-.451.462-.7 1.077-.7 1.732 0 1.351 1.065 2.491 2.387 2.491h.214c-.069.2-.107.416-.107.64 0 1.059.84 1.92 1.87 1.92 1.032 0 1.871-.861 1.871-1.92 0-.224-.038-.439-.107-.64h5.202c-.069.201-.107.416-.107.64 0 1.059.839 1.92 1.87 1.92 1.032 0 1.87-.861 1.87-1.92 0-1.058-.838-1.919-1.87-1.919H8.136c-.618 0-1.14-.555-1.14-1.212 0-.313.119-.607.334-.828l.548-.562H18.84c1.717 0 3.16-1.466 3.16-3.242V4.48c0-.354-.28-.64-.624-.64zM10.737 16.08c0 .352-.28.64-.624.64a.633.633 0 0 1-.624-.64c0-.353.28-.64.624-.64.343 0 .623.287.623.64zm8.104.64a.633.633 0 0 1-.623-.64c0-.353.28-.64.623-.64.344 0 .624.287.624.64 0 .352-.28.64-.624.64zm1.912-8.403c0 1.063-.875 1.962-1.912 1.962H8.106L6.854 5.118h13.9v3.2z" fill="#F7B551"/>
    <path d="M12.607 8.957a.632.632 0 0 0 .623-.64v-1.28c0-.352-.279-.639-.623-.639a.632.632 0 0 0-.624.64v1.28c0 .353.28.64.624.64zM10.113 8.957a.632.632 0 0 0 .623-.64v-1.28c0-.352-.279-.639-.623-.639a.632.632 0 0 0-.624.64v1.28c0 .353.28.64.624.64zM15.1 8.957a.632.632 0 0 0 .623-.64v-1.28c0-.352-.279-.639-.623-.639a.632.632 0 0 0-.623.64v1.28c0 .353.279.64.623.64zM17.594 8.957a.632.632 0 0 0 .624-.64v-1.28c0-.352-.28-.639-.624-.639a.632.632 0 0 0-.623.64v1.28c0 .353.279.64.623.64z" fill="#F7B551"/>
</svg>
