<svg width="55" height="55" viewBox="0 0 55 55" fill="none" xmlns="http://www.w3.org/2000/svg">
    <g clip-path="url(#qs47m49kwa)" fill="#000">
        <path d="M38.236 25.888c0-.89-.721-1.611-1.611-1.611h-9.576a1.611 1.611 0 0 0 0 3.223h9.576c.89 0 1.611-.722 1.611-1.612z"/>
        <path d="M53.036 34.898a5.518 5.518 0 0 0-3.261-1.297V6.952a4.326 4.326 0 0 0-4.32-4.321H18.216a4.326 4.326 0 0 0-4.321 4.322v22.56c-1.31.066-2.62.3-3.903.702H3.08A3.083 3.083 0 0 0 0 33.294v12.24a3.083 3.083 0 0 0 3.08 3.08h8.642c2.272 1.124 6.552 3.756 13.518 3.756 3.72 0 7.158-.92 8.153-1.328l18.008-6.721c3.94-1.471 4.883-6.683 1.635-9.423zM27.645 5.853h8.381v7.21c-2.79-1.712-3.138-2.058-4.19-2.058-1.076 0-1.463.385-4.191 2.057v-7.21zM17.119 6.952a1.1 1.1 0 0 1 1.098-1.1h6.205v7.669c0 2.32 2.55 3.737 4.515 2.529l2.898-1.777 2.897 1.776c1.973 1.21 4.517-.211 4.517-2.528V5.853h6.205a1.1 1.1 0 0 1 1.098 1.099V34.01c-15.415 2.635-13.48 2.35-14.466 2.35-10.91-5.465-11.79-6.18-14.967-6.682V6.952zM50.275 41.3l-17.98 6.711a22.477 22.477 0 0 1-15.86-.662c-4.018-1.987-3.846-1.958-4.337-1.958H3.223V33.437h7.023c.652 0 4.885-1.98 10.043.61 1.284.643.362.181 4.61 2.314h.002c5.409 2.715 5.515 2.635 5.867 3.223.863 1.447-.693 3.1-2.182 2.376l-5.172-2.545a1.613 1.613 0 0 0-1.423 2.892l5.175 2.546c3.62 1.774 7.843-1.36 6.952-5.447l14.957-2.557c2.8-.475 3.774 3.491 1.2 4.452z"/>
    </g>
    <defs>
        <clipPath id="qs47m49kwa">
            <path fill="#fff" d="M0 0h55v55H0z"/>
        </clipPath>
    </defs>
</svg>
