<svg width="24" height="22" viewBox="0 0 24 22" xmlns="http://www.w3.org/2000/svg">
<g filter="url(#filter0_d_487_2426)">
<rect x="1" y="1" width="22" height="20" rx="1"/>
</g>
<path fill-rule="evenodd" clip-rule="evenodd" d="M5.67778 6C5.65172 6 5.61236 6.01117 5.57299 6.05565C5.53187 6.10211 5.50008 6.17686 5.50008 6.2657V14.6349C5.49845 14.7651 5.54179 14.882 5.60785 14.9627L5.60904 14.9641C5.62251 14.9807 5.63539 14.9898 5.64462 14.9944C5.65281 14.9986 5.65911 14.9998 5.66365 15H18.3384C18.3423 14.9998 18.348 14.9988 18.3556 14.9949C18.3643 14.9906 18.3767 14.9819 18.3897 14.9656L18.3922 14.9627C18.4582 14.882 18.5016 14.7651 18.5 14.6349L18.4999 14.6286L18.4999 6.2657C18.4999 6.17686 18.4681 6.10211 18.427 6.05565C18.3876 6.01117 18.3483 6 18.3222 6H5.67778ZM4.82416 5.39288C5.03898 5.15017 5.34437 5 5.67778 5H18.3222C18.6556 5 18.961 5.15017 19.1758 5.39288C19.3889 5.63362 19.4999 5.94838 19.4999 6.2657V14.6258C19.5035 14.9757 19.3892 15.3228 19.167 15.5948C19.0695 15.7153 18.9476 15.8162 18.8066 15.8875C18.6648 15.9591 18.5083 15.9983 18.3477 16L18.3426 16L5.65273 16C5.49247 15.9981 5.3364 15.9589 5.19475 15.8875C5.05367 15.8165 4.93153 15.7159 4.83358 15.5955C4.61106 15.3235 4.49647 14.976 4.50008 14.6258V6.2657C4.50008 5.94839 4.6111 5.63362 4.82416 5.39288Z" fill="#ffffff"/>
<path fill-rule="evenodd" clip-rule="evenodd" d="M4.90537 5.3818C5.09227 5.17852 5.40857 5.16525 5.61185 5.35215L11.8185 11.0587C11.8187 11.0588 11.8188 11.059 11.8189 11.0591C11.8807 11.1154 11.9473 11.1377 12.0063 11.1377C12.0654 11.1377 12.132 11.1154 12.1937 11.0591C12.1939 11.059 12.194 11.0588 12.1942 11.0587L18.4008 5.35215C18.6041 5.16525 18.9204 5.17852 19.1073 5.3818C19.2942 5.58508 19.2809 5.90139 19.0777 6.08829L12.87 11.7958L12.8689 11.7967C12.6336 12.012 12.3295 12.1377 12.0063 12.1377C11.6832 12.1377 11.3791 12.012 11.1437 11.7967L11.1427 11.7958L4.93503 6.08829C4.73175 5.90139 4.71847 5.58508 4.90537 5.3818Z" fill="#ffffff"/>
<defs>
<filter id="filter0_d_487_2426" x="0" y="0" width="24" height="22" filterUnits="userSpaceOnUse" color-interpolation-filters="sRGB">
<feFlood flood-opacity="0" result="BackgroundImageFix"/>
<feColorMatrix in="SourceAlpha" type="matrix" values="0 0 0 0 0 0 0 0 0 0 0 0 0 0 0 0 0 0 127 0" result="hardAlpha"/>
<feOffset/>
<feGaussianBlur stdDeviation="0.5"/>
<feComposite in2="hardAlpha" operator="out"/>
<feColorMatrix type="matrix" values="0 0 0 0 0 0 0 0 0 0 0 0 0 0 0 0 0 0 0.25 0"/>
<feBlend mode="normal" in2="BackgroundImageFix" result="effect1_dropShadow_487_2426"/>
<feBlend mode="normal" in="SourceGraphic" in2="effect1_dropShadow_487_2426" result="shape"/>
</filter>
</defs>
</svg>
