<svg width="37" height="37" viewBox="0 0 37 37" fill="none" xmlns="http://www.w3.org/2000/svg">
    <g clip-path="url(#z3g9nnz5ja)" fill="#000">
        <path d="M17.055 17.416H2.529A2.532 2.532 0 0 0 0 19.947V34.47a2.532 2.532 0 0 0 2.53 2.53h14.525a2.532 2.532 0 0 0 2.529-2.53V19.946a2.532 2.532 0 0 0-2.53-2.53zM7.78 19.584h4.021v3.22l-1.067-.655a1.803 1.803 0 0 0-1.888.001l-1.066.653v-3.219zm9.635 14.887c0 .2-.162.361-.361.361H2.529a.362.362 0 0 1-.361-.361V19.946c0-.2.162-.362.361-.362h3.085v3.865c0 1.421 1.56 2.271 2.75 1.54l1.428-.875 1.427.875c1.201.737 2.751-.13 2.751-1.54v-3.865h3.085c.199 0 .36.163.36.362V34.47z"/>
        <path d="M12.345 28.96H7.238a1.084 1.084 0 0 0 0 2.168h5.107a1.084 1.084 0 0 0 0-2.168zM24.256.732A1.087 1.087 0 0 0 23.231 0H18.5a1.084 1.084 0 0 0 0 2.168h1.65c-4.508 5.201-2.567 12.942 3.534 15.183a1.084 1.084 0 1 0 .748-2.035 7.03 7.03 0 0 1-4.59-6.576c0-2.337 1.114-4.64 2.812-6l.942 2.737a1.084 1.084 0 1 0 2.05-.705l-1.39-4.04zM35.915 13.921h-2.273a9.138 9.138 0 0 0 1.601-5.181 9.17 9.17 0 0 0-6.21-8.682 1.084 1.084 0 0 0-.699 2.052c4.55 1.552 6.19 7.114 3.304 10.881l-.818-2.379a1.084 1.084 0 0 0-2.05.706l1.39 4.04c.152.443.57.731 1.024.731h4.731a1.084 1.084 0 0 0 0-2.168z"/>
    </g>
    <defs>
        <clipPath id="z3g9nnz5ja">
            <path fill="#fff" d="M0 0h37v37H0z"/>
        </clipPath>
    </defs>
</svg>
