<svg width="31" height="32" viewBox="0 0 31 32" fill="none" xmlns="http://www.w3.org/2000/svg">
<path d="M24.0426 6.6601L21.168 3.61865" stroke="white" stroke-width="1.5" stroke-linecap="round" stroke-linejoin="round"/>
<path d="M24.043 6.66016L26.9207 9.69833" stroke="white" stroke-width="1.5" stroke-linecap="round" stroke-linejoin="round"/>
<path d="M6.35028 25.3591L3.47266 22.3209" stroke="white" stroke-width="1.5" stroke-linecap="round" stroke-linejoin="round"/>
<path d="M6.35547 25.3591L9.23004 28.4006" stroke="white" stroke-width="1.5" stroke-linecap="round" stroke-linejoin="round"/>
<path d="M7.45648 7.82836C13.0142 1.95433 23.0337 -0.75425 27.6188 2.21213C27.872 2.38007 28.0837 2.60941 28.2363 2.88112C31.043 7.72719 28.4895 18.3037 22.9225 24.1908C17.3555 30.0779 7.36077 32.7734 2.77561 29.807C2.52416 29.6437 2.31261 29.4201 2.15808 29.1543C-0.664023 24.2919 1.88946 13.7252 7.45648 7.82836Z" stroke="white" stroke-width="1.5" stroke-linecap="round" stroke-linejoin="round"/>
<path d="M20.0773 10.8501L10.3203 21.1623" stroke="white" stroke-width="1.5" stroke-linecap="round" stroke-linejoin="round"/>
<path d="M19.7792 14.8969L18.0161 13.0335L16.25 11.1669" stroke="white" stroke-width="1.5" stroke-linecap="round" stroke-linejoin="round"/>
<path d="M16.9597 17.8729L15.1966 16.0095L13.4336 14.1461" stroke="white" stroke-width="1.5" stroke-linecap="round" stroke-linejoin="round"/>
<path d="M14.1424 20.8524L12.3763 18.9891L10.6133 17.1224" stroke="white" stroke-width="1.5" stroke-linecap="round" stroke-linejoin="round"/>
</svg>
