<svg width="32" height="32" viewBox="0 0 32 32" fill="none" xmlns="http://www.w3.org/2000/svg">
<path d="M10.9468 21.7708L10.9472 21.7708C11.1438 21.77 11.3321 21.6913 11.4708 21.5519C11.4709 21.5518 11.4709 21.5517 11.471 21.5516L21.5264 11.4963L21.5265 11.4964L21.5308 11.4917C21.6586 11.3501 21.7271 11.1648 21.7221 10.9741C21.717 10.7834 21.6389 10.602 21.5038 10.4673C21.3687 10.3327 21.1869 10.2552 20.9962 10.2508C20.8056 10.2465 20.6205 10.3156 20.4794 10.444L20.4793 10.4438L20.4751 10.448L10.4195 20.5037L10.4192 20.5039C10.2808 20.6432 10.2031 20.8315 10.2031 21.0278C10.2031 21.2241 10.2808 21.4124 10.4192 21.5516C10.4883 21.6212 10.5705 21.6763 10.6611 21.714C10.7516 21.7516 10.8487 21.7709 10.9468 21.7708Z" fill="white" stroke="black" stroke-width="0.25"/>
<path d="M17.2458 18.3292L17.2454 18.3289L13.6422 14.7225L13.6328 14.7131L13.6333 14.7127C13.5188 14.5706 13.4606 14.3914 13.4697 14.2092C13.4788 14.027 13.5546 13.8545 13.6827 13.7246C13.8107 13.5947 13.9821 13.5165 14.1642 13.5048C14.3463 13.4931 14.5262 13.5488 14.6699 13.6612L14.6759 13.6659L14.6813 13.6713L18.2967 17.2899C18.2968 17.2899 18.2968 17.2899 18.2968 17.2899L18.2968 17.29L17.2458 18.3292ZM17.2458 18.3292C17.3153 18.3981 17.3976 18.4526 17.4881 18.4896C17.5781 18.5263 17.6745 18.5451 17.7717 18.5447M17.2458 18.3292L17.7717 18.5447M17.7717 18.5447C17.7711 18.5447 17.7706 18.5447 17.77 18.5447L17.7727 18.4197L17.7734 18.5447C17.7728 18.5447 17.7723 18.5447 17.7717 18.5447Z" fill="white" stroke="black" stroke-width="0.25"/>
<path d="M14.9196 21.3938L14.9201 21.2688L14.92 21.3938C15.0668 21.3939 15.2104 21.3505 15.3326 21.2691C15.4548 21.1877 15.5501 21.0719 15.6065 20.9364C15.663 20.8009 15.678 20.6516 15.6497 20.5076C15.6214 20.3635 15.5511 20.231 15.4476 20.1269L15.4473 20.1267L11.8472 16.5235L11.8472 16.5234C11.7078 16.384 11.5187 16.3057 11.3215 16.3057C11.1244 16.3057 10.9353 16.384 10.7959 16.5234C10.6564 16.6628 10.5781 16.8519 10.5781 17.0491C10.5781 17.2462 10.6564 17.4353 10.7959 17.5747L14.3957 21.1746C14.3958 21.1747 14.3959 21.1747 14.3959 21.1748C14.5346 21.3142 14.7229 21.393 14.9196 21.3938Z" fill="white" stroke="black" stroke-width="0.25"/>
<path d="M20.6255 15.6955L20.6251 15.6955C20.4284 15.6946 20.2401 15.6159 20.1014 15.4764C20.1013 15.4764 20.1013 15.4763 20.1012 15.4763L16.5004 11.8755C16.4269 11.8084 16.3675 11.7273 16.3259 11.6369C16.2838 11.5455 16.2607 11.4464 16.2581 11.3458C16.2554 11.2452 16.2732 11.1451 16.3104 11.0515C16.3476 10.958 16.4035 10.873 16.4745 10.8017C16.5456 10.7304 16.6304 10.6743 16.7238 10.6368C16.8171 10.5992 16.9172 10.5811 17.0178 10.5834C17.1185 10.5857 17.2176 10.6084 17.3091 10.6501C17.3998 10.6915 17.4812 10.7506 17.5485 10.824L21.1528 14.4252L21.1528 14.4252L21.0644 14.5136C21.1219 14.571 21.1675 14.6392 21.1986 14.7142C21.2297 14.7892 21.2457 14.8697 21.2457 14.9509C21.2457 15.0321 21.2297 15.1125 21.1986 15.1876C21.1675 15.2626 21.1219 15.3307 21.0644 15.3881L20.6255 15.6955ZM20.6255 15.6955C20.7236 15.6955 20.8207 15.6762 20.9112 15.6386C21.0017 15.601 21.0839 15.5459 21.153 15.4764L20.6255 15.6955Z" fill="white" stroke="black" stroke-width="0.25"/>
<path d="M8.12609 31.125C5.59022 31.125 3.583 30.549 2.50309 29.4691C1.69672 28.6627 1.19019 27.3193 0.982891 25.6705C0.775134 24.0181 0.865664 22.0421 1.26974 19.9511C2.07774 15.7699 4.14314 11.1103 7.61432 7.63908L8.12609 31.125ZM8.12609 31.125C12.4845 31.125 19.3421 29.3551 24.3362 24.361M8.12609 31.125L7.61434 7.63905C12.6054 2.64492 19.463 0.875 23.8245 0.875C26.3509 0.875 28.3676 1.45092 29.4445 2.53103C30.2508 3.33741 30.7575 4.68116 30.9651 6.3303C31.1731 7.98319 31.083 9.95977 30.6793 12.0512C29.8721 16.2332 27.8074 20.8929 24.3362 24.361M24.3362 24.361L24.2479 24.2726L24.3362 24.361ZM3.56059 28.4147L3.56042 28.4145C2.98076 27.8371 2.57896 26.7445 2.41897 25.2985C2.25961 23.8584 2.34259 22.0894 2.71112 20.1836C3.44828 16.3713 5.32454 12.0284 8.66257 8.69037C13.0334 4.31958 19.4307 2.36109 23.8245 2.36109C24.8979 2.36109 25.8515 2.47464 26.6327 2.68513C27.4156 2.89608 28.0157 3.20181 28.393 3.57899C28.9722 4.16201 29.3732 5.25795 29.5325 6.70522C29.6913 8.14688 29.6078 9.91578 29.2391 11.8207C28.5015 15.6309 26.6261 19.9685 23.2911 23.3035C18.9203 27.6742 12.526 29.6327 8.13227 29.6327C7.05886 29.6327 6.10449 29.5192 5.32252 29.3087C4.53873 29.0977 3.93779 28.7919 3.56059 28.4147Z" fill="white" stroke="black" stroke-width="0.25"/>
<path d="M10.6724 29.6451L10.7167 29.6893L10.7786 29.6804C11.2553 29.6119 11.7405 29.5185 12.2339 29.4099L12.4011 29.3731L12.3151 29.2251C12.2824 29.1689 12.2429 29.1169 12.1974 29.0705L12.1965 29.0697L2.76821 19.6414L2.60582 19.479L2.55761 19.7035C2.4488 20.2103 2.3618 20.7074 2.29038 21.195L2.28128 21.2571L2.32569 21.3015L10.6724 29.6451Z" fill="white" stroke="black" stroke-width="0.25"/>
<path d="M1.58185 19.6778L1.34883 19.5943C1.28827 19.7093 1.25986 19.8384 1.2666 19.9681L1.51336 19.9892C1.51573 19.9787 1.51813 19.968 1.52058 19.9572C1.54034 19.8698 1.56233 19.7726 1.58185 19.6778Z" fill="white" stroke="black" stroke-width="0.25"/>
<path d="M21.2781 2.35467L21.2336 2.31017L21.1714 2.31941C20.6892 2.39096 20.1917 2.48424 19.6915 2.5961L19.4696 2.6457L19.6303 2.80646L29.0339 12.2131L29.0339 12.2132L29.0361 12.2153C29.087 12.2637 29.1442 12.3048 29.2063 12.3374L29.3523 12.4141L29.3867 12.2529C29.4924 11.7588 29.5794 11.2709 29.6478 10.7952L29.6567 10.7333L29.6125 10.689L21.2781 2.35467Z" fill="white" stroke="black" stroke-width="0.25"/>
</svg>
