<svg width="31" height="30" viewBox="0 0 31 30" xmlns="http://www.w3.org/2000/svg">
<path d="M4.5781 26.2501C4.92326 26.2501 5.20307 25.9703 5.20307 25.6251C5.20307 25.2799 4.92326 25.0001 4.5781 25.0001C4.23294 25.0001 3.95312 25.2799 3.95312 25.6251C3.95312 25.9703 4.23294 26.2501 4.5781 26.2501Z" />
<path d="M7.0781 26.8751C7.42326 26.8751 7.70307 26.5953 7.70307 26.2502C7.70307 25.905 7.42326 25.6252 7.0781 25.6252C6.73294 25.6252 6.45312 25.905 6.45312 26.2502C6.45312 26.5953 6.73294 26.8751 7.0781 26.8751Z" />
<path d="M9.5781 26.2501C9.92326 26.2501 10.2031 25.9703 10.2031 25.6251C10.2031 25.2799 9.92326 25.0001 9.5781 25.0001C9.23294 25.0001 8.95312 25.2799 8.95312 25.6251C8.95312 25.9703 9.23294 26.2501 9.5781 26.2501Z" />
<path d="M3.3281 23.7503C3.67326 23.7503 3.95307 23.4704 3.95307 23.1253C3.95307 22.7801 3.67326 22.5003 3.3281 22.5003C2.98294 22.5003 2.70312 22.7801 2.70312 23.1253C2.70312 23.4704 2.98294 23.7503 3.3281 23.7503Z" />
<path d="M10.8281 23.7503C11.1733 23.7503 11.4531 23.4704 11.4531 23.1253C11.4531 22.7801 11.1733 22.5003 10.8281 22.5003C10.4829 22.5003 10.2031 22.7801 10.2031 23.1253C10.2031 23.4704 10.4829 23.7503 10.8281 23.7503Z" />
<path d="M5.8281 24.3753C6.17326 24.3753 6.45307 24.0954 6.45307 23.7503C6.45307 23.4051 6.17326 23.1253 5.8281 23.1253C5.48294 23.1253 5.20312 23.4051 5.20312 23.7503C5.20312 24.0954 5.48294 24.3753 5.8281 24.3753Z" />
<path d="M8.3281 24.3753C8.67326 24.3753 8.95307 24.0954 8.95307 23.7503C8.95307 23.4051 8.67326 23.1253 8.3281 23.1253C7.98294 23.1253 7.70312 23.4051 7.70312 23.7503C7.70312 24.0954 7.98294 24.3753 8.3281 24.3753Z" />
<path d="M7.07785 30C5.71816 30 4.389 29.5968 3.25846 28.8414C2.12792 28.086 1.24677 27.0123 0.726435 25.7561C0.206104 24.4999 0.0699613 23.1176 0.335224 21.7841C0.600487 20.4505 1.25524 19.2256 2.21669 18.2641C3.17813 17.3027 4.40309 16.6479 5.73666 16.3826C7.07022 16.1174 8.4525 16.2535 9.70869 16.7739C10.9649 17.2942 12.0386 18.1753 12.794 19.3059C13.5494 20.4364 13.9526 21.7656 13.9526 23.1253C13.9526 24.9486 13.2283 26.6972 11.939 27.9864C10.6497 29.2757 8.90114 30 7.07785 30ZM7.07785 17.5005C5.96537 17.5005 4.87788 17.8304 3.95289 18.4484C3.0279 19.0665 2.30696 19.945 1.88124 20.9728C1.45551 22.0006 1.34412 23.1315 1.56116 24.2226C1.77819 25.3137 2.3139 26.3159 3.10053 27.1026C3.88717 27.8892 4.88941 28.4249 5.98051 28.642C7.07161 28.859 8.20256 28.7476 9.23035 28.3219C10.2581 27.8962 11.1366 27.1752 11.7547 26.2502C12.3727 25.3252 12.7026 24.2377 12.7026 23.1253C12.7026 22.3866 12.5571 21.6552 12.2745 20.9728C11.9918 20.2903 11.5775 19.6703 11.0552 19.148C10.5329 18.6257 9.91278 18.2113 9.23035 17.9287C8.54793 17.646 7.8165 17.5005 7.07785 17.5005Z" />
<path d="M16.4528 16.2505H7.70312V17.5005H16.4528V16.2505Z" />
<path d="M16.4529 18.7504H12.0781V20.0004H16.4529V18.7504Z" />
<path d="M16.453 21.2504H13.3281V22.5003H16.453V21.2504Z" />
<path d="M30.1507 1.63244C30.1186 1.55624 30.0717 1.48718 30.0127 1.42925C29.9537 1.37132 29.8838 1.32567 29.807 1.29495L26.6821 0.0450055C26.5311 -0.0156469 26.3623 -0.0149712 26.2117 0.0468888C26.0612 0.108749 25.9407 0.226912 25.8759 0.376242L19.8261 14.2944L7.19541 11.8758H7.07667C5.97395 11.876 4.88746 12.1414 3.90889 12.6497C2.93032 13.158 2.08838 13.8943 1.45412 14.7963C0.81987 15.6984 0.411912 16.7398 0.26468 17.8326C0.117448 18.9254 0.235262 20.0377 0.608179 21.0754L1.78313 20.6254C1.56602 20.0241 1.45398 19.3898 1.45189 18.7505C1.45182 17.2684 2.0367 15.8462 3.07942 14.7929C4.12213 13.7397 5.5384 13.1405 7.02042 13.1257L20.0824 15.6256C20.222 15.6532 20.3669 15.6323 20.493 15.5664C20.6192 15.5005 20.719 15.3935 20.7761 15.2631L23.5385 8.90089L25.7009 9.75086L20.8699 21.6254C20.8699 21.6254 19.7449 24.3753 17.0763 24.3753H13.3264V25.6252H17.0763C20.5824 25.6252 21.9761 22.2504 22.0323 22.1129L30.157 2.11367C30.1878 2.03703 30.2031 1.95503 30.202 1.87243C30.201 1.78983 30.1835 1.70826 30.1507 1.63244ZM26.1759 8.59466L24.0385 7.73844L26.7821 1.43245L28.7633 2.22617L26.1759 8.59466Z" />
</svg>
