<svg width="36" height="35" viewBox="0 0 36 35" xmlns="http://www.w3.org/2000/svg">
<path d="M7.55551 23.6206C3.80075 23.6206 0 24.7108 0 26.7974V31.2241C0 33.3108 3.80075 34.4009 7.55551 34.4009C11.3103 34.4009 15.111 33.3108 15.111 31.2241V26.7974C15.111 24.7108 11.3103 23.6206 7.55551 23.6206ZM7.55551 25.0094C11.4285 25.0094 13.797 26.1655 13.797 26.7974C13.797 27.4293 11.4285 28.5855 7.55551 28.5855C3.68249 28.5855 1.314 27.4293 1.314 26.7974C1.314 26.1655 3.68249 25.0094 7.55551 25.0094ZM7.55551 33.0122C3.68249 33.0122 1.314 31.856 1.314 31.2241V28.6653C2.74955 29.5298 5.16074 29.9742 7.55551 29.9742C9.95028 29.9742 12.3615 29.5298 13.797 28.6653V31.2241C13.797 31.856 11.4285 33.0122 7.55551 33.0122Z"/>
<path d="M34.5912 0.0809104C34.2496 -0.047551 33.8718 0.136461 33.7502 0.497542C33.701 0.639891 28.8161 14.9269 26.9733 21.034C25.5676 25.6923 25.1305 26.7939 17.5617 26.5058H15.0848C15.1012 26.5995 15.1111 26.6932 15.1111 26.7939C15.1111 27.2001 14.9665 27.5647 14.707 27.8945H17.5584C17.8048 27.8945 18.0413 27.8945 18.2713 27.8945C25.5049 27.8945 26.3393 27.7001 28.2216 21.4541C30.0546 15.3713 34.9328 1.1086 34.9821 0.966252C35.1069 0.605172 34.9296 0.209372 34.5879 0.0774385L34.5912 0.0809104Z"/>
<path d="M30.8635 0.0426798C30.5251 -0.0892535 30.1441 0.0947587 30.0193 0.455839L23.1471 20.225C23.0715 20.4403 22.8744 20.5861 22.6609 20.5861H9.764C8.51899 20.5896 7.41195 21.5964 7.18857 22.9227L7.07031 23.6275C7.23128 23.624 7.39553 23.6206 7.55649 23.6206C7.839 23.6206 8.12151 23.6275 8.40402 23.6414L8.48286 23.1657C8.59783 22.4887 9.14971 21.9783 9.764 21.9749H22.6609C23.4263 21.9749 24.1161 21.461 24.3789 20.7007L31.2544 0.934966C31.3792 0.573885 31.2051 0.174613 30.8635 0.0426798Z"/>
</svg>
