<svg width="15" height="17" viewBox="0 0 15 17" xmlns="http://www.w3.org/2000/svg">
<path d="M14.8214 2.62454C14.8214 3.79412 13.8732 4.74225 12.7036 4.74225C11.5341 4.74225 10.5859 3.79412 10.5859 2.62454C10.5859 1.45497 11.5341 0.506836 12.7036 0.506836C13.8732 0.506836 14.8214 1.45497 14.8214 2.62454Z"/>
<path d="M14.8214 14.3902C14.8214 15.5597 13.8732 16.5079 12.7036 16.5079C11.5341 16.5079 10.5859 15.5597 10.5859 14.3902C10.5859 13.2206 11.5341 12.2725 12.7036 12.2725C13.8732 12.2725 14.8214 13.2206 14.8214 14.3902Z"/>
<path d="M4.23542 8.97611C4.23542 10.1457 3.28729 11.0938 2.11771 11.0938C0.94813 11.0938 0 10.1457 0 8.97611C0 7.80653 0.94813 6.8584 2.11771 6.8584C3.28729 6.8584 4.23542 7.80653 4.23542 8.97611Z"/>
<path fill-rule="evenodd" clip-rule="evenodd" d="M12.3412 2.01855L13.0676 3.22917L3.54814 8.94084L13.0366 14.0014L12.3722 15.2471L0.683594 9.01313L12.3412 2.01855Z"/>
</svg>
