<svg width="25" height="25" viewBox="0 0 25 25" xmlns="http://www.w3.org/2000/svg">
<mask id="mask0_1078_15620" style="mask-type:alpha" maskUnits="userSpaceOnUse" x="0" y="0" width="25" height="25">
<path fill-rule="evenodd" clip-rule="evenodd" d="M0.234375 0.231934H24.7483V24.7458H0.234375V0.231934Z"/>
</mask>
<g mask="url(#mask0_1078_15620)">
<path fill-rule="evenodd" clip-rule="evenodd" d="M12.4914 0.231934C9.16258 0.231934 8.74514 0.246028 7.43787 0.305675C6.13321 0.365228 5.24225 0.572357 4.46255 0.875443C3.65662 1.18861 2.97298 1.60772 2.29166 2.28913C1.61016 2.97054 1.19105 3.65409 0.877884 4.46011C0.574892 5.23971 0.367669 6.13077 0.308116 7.43534C0.24847 8.7427 0.234375 9.16004 0.234375 12.4889C0.234375 15.8178 0.24847 16.2351 0.308116 17.5425C0.367669 18.8471 0.574892 19.7381 0.877884 20.5177C1.19105 21.3237 1.61016 22.0073 2.29166 22.6887C2.97298 23.3701 3.65662 23.7892 4.46255 24.1025C5.24225 24.4054 6.13321 24.6126 7.43787 24.6721C8.74514 24.7319 9.16258 24.7459 12.4914 24.7459C15.8202 24.7459 16.2376 24.7319 17.5449 24.6721C18.8496 24.6126 19.7405 24.4054 20.5202 24.1025C21.3262 23.7892 22.0098 23.3701 22.6911 22.6887C23.3725 22.0073 23.7917 21.3237 24.1049 20.5177C24.4079 19.7381 24.6151 18.8471 24.6747 17.5425C24.7342 16.2351 24.7484 15.8178 24.7484 12.4889C24.7484 9.16004 24.7342 8.7427 24.6747 7.43534C24.6151 6.13077 24.4079 5.23971 24.1049 4.46011C23.7917 3.65409 23.3725 2.97054 22.6911 2.28913C22.0098 1.60772 21.3262 1.18861 20.5202 0.875443C19.7405 0.572357 18.8496 0.365228 17.5449 0.305675C16.2376 0.246028 15.8202 0.231934 12.4914 0.231934ZM12.4938 2.44043C15.7666 2.44043 16.1542 2.45284 17.4467 2.51184C18.6417 2.56635 19.2907 2.76601 19.7226 2.93384C20.2947 3.15619 20.703 3.42184 21.1319 3.85075C21.5609 4.27967 21.8265 4.68795 22.0488 5.26005C22.2167 5.69195 22.4164 6.34097 22.4709 7.53604C22.5299 8.82848 22.5422 9.21613 22.5422 12.4889C22.5422 15.7617 22.5299 16.1493 22.4709 17.4417C22.4164 18.6368 22.2167 19.2858 22.0488 19.7177C21.8265 20.2898 21.5609 20.6981 21.132 21.1271C20.703 21.5559 20.2947 21.8216 19.7226 22.0439C19.2907 22.2118 18.6417 22.4114 17.4467 22.4659C16.1544 22.5249 15.7667 22.5374 12.4938 22.5374C9.22083 22.5374 8.83317 22.5249 7.54093 22.4659C6.34595 22.4114 5.69693 22.2118 5.26503 22.0439C4.69283 21.8216 4.28455 21.5559 3.85564 21.1271C3.42672 20.6982 3.16116 20.2898 2.93882 19.7177C2.77089 19.2858 2.57123 18.6368 2.51672 17.4417C2.45773 16.1493 2.44531 15.7617 2.44531 12.4889C2.44531 9.21613 2.45773 8.82848 2.51672 7.53604C2.57123 6.34097 2.77089 5.69195 2.93882 5.26005C3.16116 4.68795 3.42672 4.27967 3.85564 3.85075C4.28455 3.42184 4.69283 3.15619 5.26503 2.93384C5.69693 2.76601 6.34595 2.56635 7.54093 2.51184C8.83345 2.45284 9.22102 2.44043 12.4938 2.44043Z"/>
</g>
<path fill-rule="evenodd" clip-rule="evenodd" d="M12.492 16.5741C10.2355 16.5741 8.40625 14.7448 8.40625 12.4883C8.40625 10.232 10.2355 8.40271 12.492 8.40271C14.7485 8.40271 16.5777 10.232 16.5777 12.4883C16.5777 14.7448 14.7485 16.5741 12.492 16.5741ZM12.4895 6.19421C9.01326 6.19421 6.19531 9.01216 6.19531 12.4883C6.19531 15.9645 9.01326 18.7824 12.4895 18.7824C15.9656 18.7824 18.7836 15.9645 18.7836 12.4883C18.7836 9.01216 15.9656 6.19421 12.4895 6.19421Z"/>
<path fill-rule="evenodd" clip-rule="evenodd" d="M20.5041 5.94603C20.5041 6.75831 19.8456 7.41684 19.0333 7.41684C18.221 7.41684 17.5625 6.75831 17.5625 5.94603C17.5625 5.13366 18.221 4.47522 19.0333 4.47522C19.8456 4.47522 20.5041 5.13366 20.5041 5.94603Z"/>
</svg>
