<svg width="51" height="42" viewBox="0 0 51 42" xmlns="http://www.w3.org/2000/svg">
<path d="M4.65134 22.1595C2.45357 18.5643 1.23354 14.6446 1.93008 10.6082C3.25826 2.88566 8.54071 1.73053 11.5691 1.73053C17.7385 1.73053 24.4876 6.29914 24.4876 10.4611C24.4876 10.6905 24.5787 10.9106 24.741 11.0729C24.9033 11.2352 25.1233 11.3263 25.3528 11.3263C25.5823 11.3263 25.8024 11.2352 25.9647 11.0729C26.1269 10.9106 26.2181 10.6905 26.2181 10.4611C26.2181 6.29914 32.9758 1.73053 39.1322 1.73053C42.1606 1.73053 47.4431 2.88566 48.7712 10.6082C49.4678 14.6446 48.2478 18.5643 46.05 22.1595H48.092C50.1297 18.4951 51.1983 14.4932 50.4758 10.314C49.3466 3.75958 45.215 0 39.1322 0C33.3652 0 27.5073 3.33993 25.3528 7.3115C23.194 3.33993 17.3405 0 11.5691 0C5.48632 0 1.35035 3.75958 0.225507 10.314C-0.49699 14.4932 0.575939 18.4951 2.59633 22.1595H4.65134Z"/>
<path d="M39.5073 29.9469C35.1965 33.8795 30.4483 37.3039 25.3559 40.1527C20.2609 37.3059 15.5109 33.8814 11.2001 29.9469H8.65625C15.6 36.9512 24.3176 41.5717 24.9535 41.9005C25.0776 41.9658 25.2157 42 25.3559 42.0001C25.4946 41.9993 25.6311 41.9651 25.7539 41.9005C26.3942 41.5717 35.1117 36.9512 42.0642 29.9469H39.5073Z"/>
<path d="M36.961 25.1879L34.4777 19.0359C34.4062 18.868 34.2848 18.7261 34.1301 18.6294C33.9753 18.5327 33.7947 18.4858 33.6124 18.4951C33.4338 18.5035 33.2621 18.5672 33.1211 18.6772C32.9801 18.7872 32.8767 18.9382 32.825 19.1094L29.8658 28.9302L26.5129 14.4067C26.4696 14.2188 26.3647 14.0508 26.215 13.9293C26.0653 13.8079 25.8793 13.7398 25.6866 13.7361C25.4912 13.7294 25.2994 13.7891 25.1423 13.9053C24.9851 14.0216 24.872 14.1876 24.8213 14.3764L21.8318 25.5902L19.236 19.0575C19.1722 18.8972 19.0619 18.7596 18.9192 18.6625C18.7766 18.5653 18.6082 18.5131 18.4356 18.5124C18.2613 18.5129 18.0913 18.566 17.9477 18.6648C17.8041 18.7637 17.6937 18.9035 17.6309 19.0661L15.2515 25.1879H1.4375C1.90042 25.7763 2.38929 26.356 2.89115 26.9184H15.8312C16.0025 26.92 16.1704 26.8707 16.3137 26.7767C16.4569 26.6827 16.5691 26.5484 16.6359 26.3906L18.4356 21.7614L21.1915 28.6836C21.2591 28.8546 21.3794 28.9996 21.535 29.0976C21.6906 29.1957 21.8733 29.2416 22.0568 29.2287C22.241 29.2137 22.4156 29.14 22.555 29.0186C22.6943 28.8971 22.7911 28.7342 22.8312 28.5538L25.613 18.1706L28.94 32.5037C28.9836 32.6887 29.0868 32.8541 29.2338 32.9745C29.3808 33.095 29.5634 33.1636 29.7533 33.17H29.7836C29.9695 33.1693 30.1503 33.1088 30.2991 32.9974C30.448 32.8859 30.5569 32.7295 30.6099 32.5513L33.7941 21.9778L35.5766 26.3906C35.6411 26.5501 35.7517 26.6868 35.8943 26.7831C36.0368 26.8794 36.2049 26.9311 36.3769 26.9314H47.6254C48.1316 26.369 48.6161 25.7893 49.0834 25.2009L36.961 25.1879Z"/>
</svg>
