<svg width="24" height="22" viewBox="0 0 24 22" xmlns="http://www.w3.org/2000/svg">
<g filter="url(#filter0_d_487_2431)">
<rect x="1" y="1" width="22" height="20" rx="1"/>
</g>
<path d="M6.5 16.9998H6V18.1661L6.84474 17.3619L6.5 16.9998ZM9.16643 14.4615V13.9615H8.9665L8.82169 14.0994L9.16643 14.4615ZM7 7C7 6.72386 7.22386 6.5 7.5 6.5V5.5C6.67157 5.5 6 6.17157 6 7H7ZM7 11.9229V7H6V11.9229H7ZM7 13.4615V11.9229H6V13.4615H7ZM7 16.9998V13.4615H6V16.9998H7ZM8.82169 14.0994L6.15526 16.6376L6.84474 17.3619L9.51117 14.8237L8.82169 14.0994ZM17.5 13.9615H9.16643V14.9615H17.5V13.9615ZM18 13.4615C18 13.7377 17.7761 13.9615 17.5 13.9615V14.9615C18.3284 14.9615 19 14.29 19 13.4615H18ZM18 7V13.4615H19V7H18ZM17.5 6.5C17.7761 6.5 18 6.72386 18 7H19C19 6.17157 18.3284 5.5 17.5 5.5V6.5ZM7.5 6.5H17.5V5.5H7.5V6.5Z" fill="#ffffff"/>
<defs>
<filter id="filter0_d_487_2431" x="0" y="0" width="24" height="22" filterUnits="userSpaceOnUse" color-interpolation-filters="sRGB">
<feFlood flood-opacity="0" result="BackgroundImageFix"/>
<feColorMatrix in="SourceAlpha" type="matrix" values="0 0 0 0 0 0 0 0 0 0 0 0 0 0 0 0 0 0 127 0" result="hardAlpha"/>
<feOffset/>
<feGaussianBlur stdDeviation="0.5"/>
<feComposite in2="hardAlpha" operator="out"/>
<feColorMatrix type="matrix" values="0 0 0 0 0 0 0 0 0 0 0 0 0 0 0 0 0 0 0.25 0"/>
<feBlend mode="normal" in2="BackgroundImageFix" result="effect1_dropShadow_487_2431"/>
<feBlend mode="normal" in="SourceGraphic" in2="effect1_dropShadow_487_2431" result="shape"/>
</filter>
</defs>
</svg>
