<svg width="55" height="45" viewBox="0 0 55 45" xmlns="http://www.w3.org/2000/svg">
<path d="M53.6803 7.07627L46.9303 0.326269C46.8251 0.222002 46.7005 0.139511 46.5634 0.0835261C46.4263 0.027541 46.2796 -0.000837201 46.1315 1.88036e-05H7.88152C7.73346 -0.000837201 7.58669 0.027541 7.44963 0.0835261C7.31256 0.139511 7.18789 0.222002 7.08277 0.326269L0.332773 7.07627C0.227329 7.18085 0.143635 7.30527 0.0865203 7.44237C0.0294055 7.57946 0 7.7265 0 7.87502C0 8.02353 0.0294055 8.17057 0.0865203 8.30766C0.143635 8.44476 0.227329 8.56918 0.332773 8.67377L15.7565 24.075C14.2888 26.2731 13.5058 28.857 13.5065 31.5C13.5065 35.0804 14.9288 38.5142 17.4606 41.0459C19.9923 43.5777 23.4261 45 27.0065 45C30.5869 45 34.0207 43.5777 36.5525 41.0459C39.0842 38.5142 40.5065 35.0804 40.5065 31.5C40.5072 28.857 39.7242 26.2731 38.2565 24.075L53.6803 8.67377C53.7857 8.56918 53.8694 8.44476 53.9265 8.30766C53.9836 8.17057 54.013 8.02353 54.013 7.87502C54.013 7.7265 53.9836 7.57946 53.9265 7.44237C53.8694 7.30527 53.7857 7.18085 53.6803 7.07627ZM30.3815 18.45L46.1315 2.70002L47.9203 4.50002L32.9915 19.4175C32.1565 19.0075 31.282 18.6833 30.3815 18.45ZM20.999 19.4175L6.09277 4.50002L7.88152 2.72252L23.564 18.4725C22.6859 18.698 21.8338 19.0147 21.0215 19.4175H20.999ZM26.3203 18L17.3203 9.00002H36.6703L27.6703 18C27.4565 18 27.254 18 27.0403 18C26.8265 18 26.5453 18 26.3203 18ZM38.9203 6.75002H15.0703L10.5703 2.25002H43.4203L38.9203 6.75002ZM2.71777 7.87502L4.50652 6.08627L19.0415 20.6213C18.36 21.1233 17.7272 21.6883 17.1515 22.3088L2.71777 7.87502ZM27.0065 42.75C24.7815 42.75 22.6064 42.0902 20.7564 40.854C18.9063 39.6179 17.4644 37.8609 16.6129 35.8052C15.7614 33.7495 15.5386 31.4875 15.9727 29.3052C16.4068 27.123 17.4782 25.1184 19.0516 23.5451C20.6249 21.9717 22.6295 20.9003 24.8117 20.4662C26.994 20.0321 29.256 20.2549 31.3117 21.1064C33.3674 21.9578 35.1244 23.3998 36.3605 25.2498C37.5967 27.0999 38.2565 29.275 38.2565 31.5C38.2565 34.4837 37.0712 37.3452 34.9615 39.455C32.8517 41.5647 29.9902 42.75 27.0065 42.75ZM36.8615 22.3088C36.2858 21.6883 35.653 21.1233 34.9715 20.6213L49.5065 6.08627L51.2953 7.87502L36.8615 22.3088Z"/>
<path d="M31.5078 39.3749C31.2592 39.3742 31.0179 39.2911 30.8216 39.1387L27.0078 36.2024L23.1941 39.1387C23.0127 39.2794 22.7926 39.3614 22.5634 39.3734C22.3341 39.3855 22.1067 39.3271 21.9116 39.2062C21.7125 39.0877 21.555 38.9106 21.4603 38.6992C21.3657 38.4878 21.3386 38.2523 21.3828 38.0249L22.3728 33.0974L18.4578 30.1499C18.2689 30.0083 18.1294 29.8108 18.059 29.5854C17.9886 29.36 17.9909 29.1182 18.0655 28.8942C18.1402 28.6702 18.2835 28.4753 18.475 28.3373C18.6666 28.1992 18.8967 28.1249 19.1328 28.1249H23.9928L25.9616 23.2087C26.0445 22.9989 26.1886 22.8188 26.3752 22.6919C26.5618 22.565 26.7822 22.4972 27.0078 22.4972C27.2334 22.4972 27.4539 22.565 27.6404 22.6919C27.827 22.8188 27.9711 22.9989 28.0541 23.2087L30.0228 28.1249H34.8828C35.1189 28.1249 35.3491 28.1992 35.5406 28.3373C35.7322 28.4753 35.8754 28.6702 35.9501 28.8942C36.0247 29.1182 36.027 29.36 35.9566 29.5854C35.8862 29.8108 35.7467 30.0083 35.5578 30.1499L31.6203 33.0974L32.6328 38.0249C32.6666 38.1903 32.6627 38.3611 32.6216 38.5248C32.5804 38.6884 32.5029 38.8407 32.3948 38.9704C32.2868 39.1 32.151 39.2037 31.9974 39.2737C31.8439 39.3438 31.6765 39.3784 31.5078 39.3749ZM27.0078 33.6599C27.2564 33.6607 27.4977 33.7438 27.6941 33.8962L29.8203 35.5274L29.2578 32.8499C29.2152 32.6412 29.2328 32.4246 29.3085 32.2255C29.3842 32.0263 29.5148 31.8527 29.6853 31.7249L31.5078 30.3749H29.2578C29.0325 30.3752 28.8123 30.3077 28.6258 30.1813C28.4392 30.055 28.2949 29.8755 28.2116 29.6662L27.0078 26.6512L25.8041 29.6662C25.7207 29.8755 25.5764 30.055 25.3899 30.1813C25.2033 30.3077 24.9831 30.3752 24.7578 30.3749H22.5078L24.3078 31.7249C24.4783 31.8527 24.609 32.0263 24.6846 32.2255C24.7603 32.4246 24.7779 32.6412 24.7353 32.8499L24.1953 35.5274L26.3216 33.8962C26.5179 33.7438 26.7592 33.6607 27.0078 33.6599Z"/>
</svg>
