<svg width="51" height="51" viewBox="0 0 51 51" fill="none" xmlns="http://www.w3.org/2000/svg">
    <g clip-path="url(#rx6yrvzs1a)" fill="#000">
        <path d="M48.556 30.06a6.034 6.034 0 0 0-5.322-.974l-17.128 3.898a5.117 5.117 0 0 0-1.34-.88L15.97 28.16a9.678 9.678 0 0 0-8.026.035l-7.07 3.217a1.494 1.494 0 0 0 1.238 2.72l7.077-3.22a6.697 6.697 0 0 1 5.556-.026l8.795 3.945c.335.151.619.383.832.666 1.317 1.855-.621 4.121-2.588 3.236L14.18 35.31a1.494 1.494 0 1 0-1.226 2.725l7.605 3.422c3.825 1.721 8.012-1.646 7.114-5.765 11.253-2.56 16.288-3.705 16.36-3.726a3.096 3.096 0 0 1 2.463 5.632l-16.097 9.48a6.652 6.652 0 0 1-5.603.557l-12.35-4.322a1.494 1.494 0 0 0-1.025.014L.963 47.311a1.494 1.494 0 0 0 1.063 2.793l9.949-3.79 11.833 4.141a9.631 9.631 0 0 0 8.11-.804l16.098-9.48c3.73-2.21 4.02-7.51.54-10.11zM7.072 23.806h36.755c.825 0 1.494-.669 1.494-1.494V1.494C45.321.67 44.652 0 43.827 0H7.072c-.825 0-1.494.669-1.494 1.494v20.818c0 .825.669 1.494 1.494 1.494zm8.636-20.818h19.583c.625 3.583 3.459 6.517 7.042 7.142v3.645a8.688 8.688 0 0 0-7.042 7.043H15.708a8.687 8.687 0 0 0-7.142-7.06v-3.611c3.63-.59 6.511-3.542 7.142-7.159zm-7.042 17.83v-3.984a5.7 5.7 0 0 1 3.984 3.984H8.666zm33.667 0h-3.984a5.7 5.7 0 0 1 3.984-3.984v3.984zm0-17.83v4.084c-1.932-.528-3.457-2.152-3.984-4.084h3.984zm-29.683 0c-.527 1.932-2.052 3.556-3.984 4.084V2.988h3.984z"/>
        <path d="M25.5 17.431a5.485 5.485 0 0 0 5.478-5.478A5.485 5.485 0 0 0 25.5 6.474a5.485 5.485 0 0 0-5.479 5.479A5.485 5.485 0 0 0 25.5 17.43zm0-7.968a2.493 2.493 0 0 1 2.49 2.49 2.493 2.493 0 0 1-2.49 2.49 2.493 2.493 0 0 1-2.49-2.49 2.493 2.493 0 0 1 2.49-2.49z"/>
    </g>
    <defs>
        <clipPath id="rx6yrvzs1a">
            <path fill="#fff" d="M0 0h51v51H0z"/>
        </clipPath>
    </defs>
</svg>
