<svg width="51" height="51" viewBox="0 0 51 51" fill="none" xmlns="http://www.w3.org/2000/svg">
<path d="M49.4821 35.0801C50.268 35.0374 50.8926 34.3876 50.8926 33.5902C50.8926 29.2906 47.4414 25.9226 43.0355 25.9226H41.5795L39.7999 17.4755C41.5172 16.7295 42.7217 15.016 42.7217 13.0255C42.7217 10.3518 40.5491 8.17651 37.8786 8.17651H30.9941C30.1699 8.17651 29.5017 8.84549 29.5017 9.67065V11.5314H25.8333C25.0091 11.5314 24.3409 12.2003 24.3409 13.0255C24.3409 13.8507 25.0091 14.5196 25.8333 14.5196H29.5017V16.3803C29.5017 17.2055 30.1699 17.8745 30.9941 17.8745H31.6567C30.4211 19.3357 29.6737 21.2232 29.6737 23.2832V31.7857C29.6737 31.8294 29.6384 31.8647 29.5948 31.8647H23.5665C23.5317 31.8647 23.5006 31.8415 23.4908 31.8081L21.8657 26.3095C23.1754 25.9592 24.1432 24.7614 24.1432 23.341C24.1432 19.9686 21.4029 17.2249 18.0346 17.2249H4.58861C2.05853 17.2248 0 19.2858 0 21.8191C0 24.135 1.72055 26.0551 3.94891 26.3679C1.58498 28.485 0.0943301 31.5605 0.0943301 34.9785V39.6302C0.0943301 40.4553 0.76251 41.1243 1.58668 41.1243H2.87791C3.57299 44.5947 6.63976 47.2174 10.3075 47.2174C13.9752 47.2174 17.042 44.5947 17.737 41.1243H35.9925C36.6875 44.5947 39.7543 47.2174 43.422 47.2174C47.6004 47.2174 50.9999 43.8138 50.9999 39.6302C51 37.9245 50.4346 36.3487 49.4821 35.0801ZM47.6636 32.096H44.3041C44.0145 32.0622 43.7205 32.0429 43.4221 32.0429C42.8872 32.0429 42.3655 32.0995 41.8616 32.2055V28.9109H43.0356C45.2213 28.9109 47.0283 30.2264 47.6636 32.096ZM32.4863 11.1647H37.8786C38.9033 11.1647 39.7371 11.9994 39.7371 13.0254C39.7371 14.0514 38.9033 14.8861 37.8786 14.8861H32.4863V11.1647ZM23.5666 34.8529H29.5949C31.2842 34.8529 32.6584 33.477 32.6584 31.7856V23.2831C32.6584 20.7149 34.46 18.56 36.8642 18.0188L38.877 27.5724V33.5632C37.4166 34.6627 36.3648 36.2777 35.9926 38.1359H21.1557C20.4588 32.7752 16.0319 28.7644 10.5066 28.7644C8.04276 28.7644 5.83083 29.5692 4.08568 30.9528C5.52722 28.2542 8.36928 26.4135 11.6337 26.4135H18.7842L20.6292 32.656C21.0113 33.9495 22.2193 34.8529 23.5666 34.8529ZM3.20025 38.1359C3.46103 36.5464 4.14006 35.1125 5.17849 34.0014C6.53388 32.5512 8.42606 31.7526 10.5064 31.7526C14.3555 31.7526 17.465 34.4576 18.1326 38.1358H3.20025V38.1359ZM4.58861 23.4252C3.70417 23.4252 2.9846 22.7047 2.9846 21.8191C2.9846 20.9335 3.70417 20.213 4.58861 20.213H18.0346C19.7572 20.213 21.1586 21.6161 21.1586 23.3408C21.1459 23.4023 21.0475 23.4429 20.8643 23.425C19.6227 23.425 19.9777 23.425 19.7191 23.425C17.936 23.4252 4.59727 23.4252 4.58861 23.4252ZM10.3075 44.229C8.29706 44.229 6.58537 42.9286 5.96441 41.1242H14.6505C14.0296 42.9286 12.3179 44.229 10.3075 44.229ZM43.4221 44.229C40.8894 44.229 38.8288 42.1659 38.8288 39.6301C38.8288 37.0942 40.8895 35.0312 43.4221 35.0312C45.9549 35.0312 48.0154 37.0942 48.0154 39.6301C48.0154 42.1659 45.9548 44.229 43.4221 44.229Z" fill="black"/>
<path d="M43.4221 41.1342C44.2518 41.1342 44.9243 40.4609 44.9243 39.6302C44.9243 38.7996 44.2518 38.1262 43.4221 38.1262C42.5925 38.1262 41.9199 38.7996 41.9199 39.6302C41.9199 40.4609 42.5925 41.1342 43.4221 41.1342Z" fill="black"/>
<path d="M1.55485 12.8936H14.9392C15.7633 12.8936 16.4315 12.2246 16.4315 11.3994C16.4315 10.5742 15.7633 9.90527 14.9392 9.90527H1.55485C0.73068 9.90527 0.0625 10.5742 0.0625 11.3994C0.0625 12.2246 0.73068 12.8936 1.55485 12.8936Z" fill="black"/>
<path d="M6.51188 6.77099H20.0115C20.8357 6.77099 21.5039 6.10202 21.5039 5.27685C21.5039 4.45169 20.8357 3.78271 20.0115 3.78271H6.51188C5.68771 3.78271 5.01953 4.45169 5.01953 5.27685C5.01953 6.10202 5.68771 6.77099 6.51188 6.77099Z" fill="black"/>
</svg>
