<svg width="19" height="20" viewBox="0 0 19 20" xmlns="http://www.w3.org/2000/svg">
<path fill-rule="evenodd" clip-rule="evenodd" d="M14.4323 8.97212C14.4323 12.5188 11.5571 15.3939 8.01045 15.3939C4.46378 15.3939 1.58863 12.5188 1.58863 8.97212C1.58863 5.42545 4.46378 2.5503 8.01045 2.5503C11.5571 2.5503 14.4323 5.42545 14.4323 8.97212ZM13.5286 14.7788C12.092 16.1445 10.1491 16.9826 8.01045 16.9826C3.5864 16.9826 0 13.3962 0 8.97212C0 4.54807 3.5864 0.96167 8.01045 0.96167C12.4345 0.96167 16.0209 4.54807 16.0209 8.97212C16.0209 10.7391 15.4488 12.3725 14.4797 13.6971L18.7884 18.0058C19.069 18.2864 19.069 18.7415 18.7884 19.0221C18.5077 19.3028 18.0527 19.3028 17.772 19.0221L13.5286 14.7788Z"/>
</svg>
