<svg width="29" height="31" viewBox="0 0 29 31" fill="none" xmlns="http://www.w3.org/2000/svg">
<path d="M14.5033 29.5435C21.961 29.5435 28.0066 23.1538 28.0066 15.2717C28.0066 7.38967 21.961 1 14.5033 1C7.04564 1 1 7.38967 1 15.2717C1 23.1538 7.04564 29.5435 14.5033 29.5435Z" stroke="white" stroke-width="1.5" stroke-linecap="round" stroke-linejoin="round"/>
<path d="M5.57031 25.9691C5.57031 25.9691 8.09777 23.1985 8.09777 15.2715C8.09777 7.34449 5.57031 4.57391 5.57031 4.57391" stroke="white" stroke-width="1.5" stroke-linecap="round" stroke-linejoin="round"/>
<path d="M5.10938 7.82553C5.10938 7.82553 7.43134 9.06656 8.57911 6.52246" stroke="white" stroke-width="1.5" stroke-linecap="round" stroke-linejoin="round"/>
<path d="M5.92969 10.9725C5.92969 10.9725 7.96109 12.6944 9.57857 10.4482" stroke="white" stroke-width="1.5" stroke-linecap="round" stroke-linejoin="round"/>
<path d="M6.15625 14.7029C6.15625 14.7029 7.91756 16.7381 9.84033 14.7835" stroke="white" stroke-width="1.5" stroke-linecap="round" stroke-linejoin="round"/>
<path d="M9.55705 20.0316C9.55705 20.0316 7.9484 17.8598 5.89062 19.6655" stroke="white" stroke-width="1.5" stroke-linecap="round" stroke-linejoin="round"/>
<path d="M8.58607 24.114C8.58607 24.114 7.4559 21.6319 5.07812 22.9226" stroke="white" stroke-width="1.5" stroke-linecap="round" stroke-linejoin="round"/>
<path d="M23.4415 25.9691C23.4415 25.9691 20.9141 23.1985 20.9141 15.2715C20.9141 7.34449 23.4415 4.57391 23.4415 4.57391" stroke="white" stroke-width="1.5" stroke-linecap="round" stroke-linejoin="round"/>
<path d="M23.8995 7.82553C23.8995 7.82553 21.5775 9.06656 20.4297 6.52246" stroke="white" stroke-width="1.5" stroke-linecap="round" stroke-linejoin="round"/>
<path d="M23.0707 10.9725C23.0707 10.9725 21.0393 12.6944 19.4219 10.4482" stroke="white" stroke-width="1.5" stroke-linecap="round" stroke-linejoin="round"/>
<path d="M22.8481 14.7029C22.8481 14.7029 21.0868 16.7381 19.1641 14.7835" stroke="white" stroke-width="1.5" stroke-linecap="round" stroke-linejoin="round"/>
<path d="M19.4531 20.0316C19.4531 20.0316 21.0618 17.8598 23.1195 19.6655" stroke="white" stroke-width="1.5" stroke-linecap="round" stroke-linejoin="round"/>
<path d="M20.4219 24.114C20.4219 24.114 21.552 21.6319 23.9445 22.9226" stroke="white" stroke-width="1.5" stroke-linecap="round" stroke-linejoin="round"/>
</svg>
