<svg width="34" height="34" viewBox="0 0 34 34" fill="none" xmlns="http://www.w3.org/2000/svg">
    <path d="M28.953 3.984h-.996v-.996A2.992 2.992 0 0 0 24.969 0H5.047a2.992 2.992 0 0 0-2.988 2.988v24.04a2.992 2.992 0 0 0 2.988 2.988h.996v.996A2.992 2.992 0 0 0 9.031 34h19.922a2.992 2.992 0 0 0 2.988-2.988V6.972a2.992 2.992 0 0 0-2.988-2.988zM6.918 7.677a2.968 2.968 0 0 0-.875 2.113v18.233h-.996a.997.997 0 0 1-.996-.996V2.988c0-.549.447-.996.996-.996h19.922c.549 0 .996.447.996.996v.996H11.849c-.799 0-1.549.311-2.113.876L6.918 7.677zm5.102-1.7V9.96H8.035V9.79a.99.99 0 0 1 .292-.704l2.817-2.818a.99.99 0 0 1 .705-.291h.17zm17.93 25.035c0 .549-.448.996-.997.996H9.031a.997.997 0 0 1-.996-.996V11.953h4.98c.55 0 .997-.446.997-.996v-4.98h14.941c.55 0 .996.446.996.996v24.039z" fill="#000"/>
    <path d="M26.96 14.078H11.024a.996.996 0 0 0 0 1.992h15.938a.996.996 0 0 0 0-1.992zM26.96 18.063H11.024a.996.996 0 0 0 0 1.992h15.938a.996.996 0 0 0 0-1.992zM26.96 22.047H11.024a.996.996 0 0 0 0 1.992h15.938a.996.996 0 0 0 0-1.992zM26.96 26.031H11.024a.996.996 0 0 0 0 1.992h15.938a.996.996 0 1 0 0-1.992z" fill="#000"/>
</svg>
