<svg width="56" height="37" viewBox="0 0 56 37" xmlns="http://www.w3.org/2000/svg">
<path d="M27.6284 27.7104C25.8067 27.7104 24.026 27.1702 22.5114 26.1581C20.9967 25.1461 19.8162 23.7076 19.1191 22.0246C18.422 20.3417 18.2396 18.4897 18.5949 16.7031C18.9503 14.9165 19.8275 13.2753 21.1156 11.9872C22.4037 10.6991 24.0449 9.82192 25.8315 9.46653C27.6182 9.11114 29.4701 9.29354 31.1531 9.99066C32.836 10.6878 34.2745 11.8683 35.2866 13.3829C36.2986 14.8976 36.8388 16.6783 36.8388 18.5C36.8318 20.9406 35.8592 23.2792 34.1334 25.005C32.4077 26.7308 30.069 27.7034 27.6284 27.7104ZM27.6284 11.0489C26.1547 11.0489 24.7141 11.4859 23.4888 12.3047C22.2635 13.1234 21.3085 14.2871 20.7445 15.6486C20.1806 17.0101 20.033 18.5082 20.3205 19.9536C20.608 21.3989 21.3177 22.7266 22.3597 23.7686C23.4018 24.8107 24.7294 25.5203 26.1748 25.8078C27.6201 26.0953 29.1183 25.9478 30.4798 25.3838C31.8413 24.8199 33.005 23.8648 33.8237 22.6395C34.6424 21.4142 35.0794 19.9736 35.0794 18.5C35.0725 16.526 34.2852 14.6348 32.8894 13.239C31.4935 11.8432 29.6024 11.0559 27.6284 11.0489Z"/>
<path d="M54.374 37H0.879696C0.646386 37 0.422632 36.9073 0.257657 36.7423C0.092682 36.5774 0 36.3536 0 36.1203V0.879696C0 0.646386 0.092682 0.422632 0.257657 0.257657C0.422632 0.092682 0.646386 0 0.879696 0L54.374 0C54.6073 0 54.8311 0.092682 54.996 0.257657C55.161 0.422632 55.2537 0.646386 55.2537 0.879696V36.1203C55.2537 36.3536 55.161 36.5774 54.996 36.7423C54.8311 36.9073 54.6073 37 54.374 37ZM1.75939 35.2406H53.4943V1.75939H1.75939V35.2406Z"/>
<path d="M9.05489 11.0489V25.951H1.75781V27.7104H9.93458C10.1679 27.7104 10.3916 27.6177 10.5566 27.4527C10.7216 27.2877 10.8143 27.064 10.8143 26.8307V10.1692C10.8143 9.93594 10.7216 9.71218 10.5566 9.54721C10.3916 9.38223 10.1679 9.28955 9.93458 9.28955H1.75781V11.0489H9.05489Z"/>
<path d="M45.3016 9.28955C45.0683 9.28955 44.8445 9.38223 44.6795 9.54721C44.5146 9.71218 44.4219 9.93594 44.4219 10.1692V26.8307C44.4219 27.064 44.5146 27.2877 44.6795 27.4527C44.8445 27.6177 45.0683 27.7104 45.3016 27.7104H53.4783V9.28955H45.3016ZM46.1813 25.951V11.0489H53.4783V25.951H46.1813Z"/>
<path d="M28.5094 1.7594H26.75V35.2406H28.5094V1.7594Z"/>
<path d="M29.7002 19.3682C30.1793 18.2256 29.6415 16.9111 28.499 16.432C27.3565 15.9529 26.0419 16.4907 25.5628 17.6332C25.0837 18.7757 25.6215 20.0903 26.764 20.5694C27.9065 21.0485 29.2211 20.5107 29.7002 19.3682Z"/>
</svg>
