<svg width="25" height="20" viewBox="0 0 25 20" xmlns="http://www.w3.org/2000/svg">
<mask id="mask0_1078_15615" style="mask-type:alpha" maskUnits="userSpaceOnUse" x="0" y="0" width="25" height="20">
<path fill-rule="evenodd" clip-rule="evenodd" d="M0.523438 0.112549H24.0436V19.4437H0.523438V0.112549Z"/>
</mask>
<g mask="url(#mask0_1078_15615)">
<path fill-rule="evenodd" clip-rule="evenodd" d="M23.3499 0.510918C23.1817 1.62513 22.2434 2.51482 21.3951 3.1593C22.4249 3.07481 23.2233 2.75964 24.0436 2.46576C23.4131 3.47458 22.5541 4.2553 21.6474 4.98805C21.5938 13.2592 15.925 19.8081 7.27059 19.428C4.47133 19.305 2.55321 18.4682 0.523438 17.3471C3.59179 17.3886 5.84976 16.62 7.52277 15.2662C5.19274 14.9893 3.78545 13.7907 3.04573 11.9243C3.59119 11.8762 4.54518 11.9854 5.12656 11.7982C3.00533 11.0395 1.44418 9.72174 1.34317 6.94269C1.92963 7.21836 2.5141 7.49512 3.36111 7.51035C2.35905 6.66205 1.18424 5.00935 1.40627 2.84403C1.47444 2.18133 1.74612 1.68384 1.97382 1.07847C4.40595 3.66943 7.30263 5.79634 11.9997 6.12306C11.2002 2.01613 15.3587 -1.18776 18.9989 0.637108C19.489 0.882321 19.9544 1.56462 20.3863 1.64603C21.2521 1.80924 22.8038 0.751255 23.3499 0.510918Z"/>
</g>
</svg>
