<svg width="29" height="31" viewBox="0 0 29 31" fill="none" xmlns="http://www.w3.org/2000/svg">
<path d="M14.5033 29.5435C21.961 29.5435 28.0067 23.1538 28.0067 15.2717C28.0067 7.38967 21.961 1 14.5033 1C7.04565 1 1 7.38967 1 15.2717C1 23.1538 7.04565 29.5435 14.5033 29.5435Z" stroke="white" stroke-width="1.5" stroke-linecap="round" stroke-linejoin="round"/>
<path d="M6.875 6.30063C8.9005 7.54165 12.0591 10.1571 14.5073 15.2732C14.5073 15.2732 11.2783 20.6437 13.5885 26.9915" stroke="white" stroke-width="1.5" stroke-linecap="round" stroke-linejoin="round"/>
<path d="M9.34794 8.57043C9.34794 8.57043 2.9779 15.2719 7.26374 27.2695" stroke="white" stroke-width="1.5" stroke-linecap="round" stroke-linejoin="round"/>
<path d="M11.4297 1.56793C11.4297 1.56793 18.3545 3.14093 22.0885 13.007" stroke="white" stroke-width="1.5" stroke-linecap="round" stroke-linejoin="round"/>
<path d="M14.5 15.2698C18.3251 15.0951 21.9833 13.5652 24.8858 10.9263" stroke="white" stroke-width="1.5" stroke-linecap="round" stroke-linejoin="round"/>
<path d="M12.7656 22.8732C12.7656 22.8732 19.9899 24.4462 27.8512 17.422" stroke="white" stroke-width="1.5" stroke-linecap="round" stroke-linejoin="round"/>
</svg>
